<svg xmlns="http://www.w3.org/2000/svg" viewBox="0 0 1302.08 939.67"><defs><style>.cls-1,.cls-10,.cls-2,.cls-3,.cls-4,.cls-5,.cls-6,.cls-8,.cls-9{fill:#69a5e8;stroke:#0045af;opacity:0.31;}.cls-1,.cls-10,.cls-2,.cls-3,.cls-4,.cls-5,.cls-6,.cls-7,.cls-8,.cls-9{stroke-linecap:round;stroke-linejoin:round;}.cls-1,.cls-9{stroke-width:1.58px;}.cls-2{stroke-width:1.45px;}.cls-3,.cls-6{stroke-width:1.36px;}.cls-4{stroke-width:0.96px;}.cls-5{stroke-width:1.21px;}.cls-6,.cls-9{fill-rule:evenodd;}.cls-7{fill:none;stroke:#fff;stroke-width:2.04px;}.cls-8{stroke-width:1.29px;}.cls-10{stroke-width:1.08px;}</style></defs><g id="Layer_2" data-name="Layer 2"><g id="Layer_8" data-name="Layer 8"><rect class="cls-1" x="249.93" y="0.79" width="214" height="288"/><rect class="cls-2" x="261.33" y="1.29" width="191.19" height="274"/><rect class="cls-3" x="269.31" y="1.29" width="175.12" height="263.27"/><rect class="cls-3" x="281.43" y="99.29" width="152" height="149"/><rect class="cls-4" x="281.43" y="1.29" width="152" height="74"/><rect class="cls-4" x="424.04" y="65.21" width="14" height="44"/><rect class="cls-5" x="255.04" y="301.21" width="202" height="49"/><polygon class="cls-6" points="255.04 301.21 265.02 289.19 450.04 289.21 457.04 301.21 255.04 301.21"/><line class="cls-7" x1="55.6" y1="10.67" x2="178.54" y2="10.67"/><line class="cls-7" x1="55.6" y1="30.67" x2="178.54" y2="30.67"/><line class="cls-7" x1="55.6" y1="50.67" x2="178.54" y2="50.67"/><line class="cls-7" x1="55.6" y1="70.67" x2="178.54" y2="70.67"/><line class="cls-7" x1="57.6" y1="90.67" x2="180.54" y2="90.67"/><line class="cls-7" x1="55.6" y1="110.67" x2="180.54" y2="110.67"/><line class="cls-7" x1="56.6" y1="130.67" x2="181.54" y2="130.67"/><line class="cls-7" x1="55.6" y1="150.67" x2="178.54" y2="150.67"/><line class="cls-7" x1="55.6" y1="170.67" x2="178.54" y2="170.67"/><line class="cls-7" x1="55.6" y1="190.67" x2="178.54" y2="190.67"/><line class="cls-7" x1="57.6" y1="210.67" x2="180.54" y2="210.67"/><line class="cls-7" x1="57.6" y1="230.67" x2="180.54" y2="230.67"/><line class="cls-7" x1="56.6" y1="250.67" x2="179.54" y2="250.67"/><line class="cls-7" x1="56.6" y1="270.67" x2="179.54" y2="270.67"/><line class="cls-7" x1="56.6" y1="290.67" x2="179.54" y2="290.67"/><line class="cls-7" x1="56.6" y1="310.67" x2="179.54" y2="310.67"/><line class="cls-7" x1="58.6" y1="330.67" x2="181.54" y2="330.67"/><line class="cls-7" x1="85.59" y1="10.51" x2="85.59" y2="30.4"/><line class="cls-7" x1="123.59" y1="10.51" x2="123.59" y2="30.4"/><line class="cls-7" x1="162.59" y1="10.51" x2="162.59" y2="30.4"/><line class="cls-7" x1="66.59" y1="30.51" x2="66.59" y2="50.4"/><line class="cls-7" x1="104.59" y1="30.51" x2="104.59" y2="50.4"/><line class="cls-7" x1="143.59" y1="30.51" x2="143.59" y2="50.4"/><line class="cls-7" x1="84.59" y1="50.51" x2="84.59" y2="70.4"/><line class="cls-7" x1="122.59" y1="50.51" x2="122.59" y2="70.4"/><line class="cls-7" x1="161.59" y1="50.51" x2="161.59" y2="70.4"/><line class="cls-7" x1="66.59" y1="70.51" x2="66.59" y2="90.4"/><line class="cls-7" x1="104.59" y1="70.51" x2="104.59" y2="90.4"/><line class="cls-7" x1="143.59" y1="70.51" x2="143.59" y2="90.4"/><line class="cls-7" x1="83.59" y1="90.51" x2="83.59" y2="110.4"/><line class="cls-7" x1="121.59" y1="90.51" x2="121.59" y2="110.4"/><line class="cls-7" x1="160.59" y1="90.51" x2="160.59" y2="110.4"/><line class="cls-7" x1="66.59" y1="110.51" x2="66.59" y2="130.4"/><line class="cls-7" x1="104.59" y1="110.51" x2="104.59" y2="130.4"/><line class="cls-7" x1="143.59" y1="110.51" x2="143.59" y2="130.4"/><line class="cls-7" x1="83.59" y1="130.51" x2="83.59" y2="150.4"/><line class="cls-7" x1="121.59" y1="130.51" x2="121.59" y2="150.4"/><line class="cls-7" x1="160.59" y1="130.51" x2="160.59" y2="150.4"/><line class="cls-7" x1="65.59" y1="150.51" x2="65.59" y2="170.4"/><line class="cls-7" x1="103.59" y1="150.51" x2="103.59" y2="170.4"/><line class="cls-7" x1="142.59" y1="150.51" x2="142.59" y2="170.4"/><line class="cls-7" x1="83.59" y1="170.51" x2="83.59" y2="190.4"/><line class="cls-7" x1="121.59" y1="170.51" x2="121.59" y2="190.4"/><line class="cls-7" x1="160.59" y1="170.51" x2="160.59" y2="190.4"/><line class="cls-7" x1="66.59" y1="190.51" x2="66.59" y2="210.4"/><line class="cls-7" x1="104.59" y1="190.51" x2="104.59" y2="210.4"/><line class="cls-7" x1="143.59" y1="190.51" x2="143.59" y2="210.4"/><line class="cls-7" x1="83.59" y1="210.51" x2="83.59" y2="230.4"/><line class="cls-7" x1="121.59" y1="210.51" x2="121.59" y2="230.4"/><line class="cls-7" x1="160.59" y1="210.51" x2="160.59" y2="230.4"/><line class="cls-7" x1="65.59" y1="230.51" x2="65.59" y2="250.4"/><line class="cls-7" x1="103.59" y1="230.51" x2="103.59" y2="250.4"/><line class="cls-7" x1="142.59" y1="230.51" x2="142.59" y2="250.4"/><line class="cls-7" x1="84.59" y1="250.51" x2="84.59" y2="270.4"/><line class="cls-7" x1="122.59" y1="250.51" x2="122.59" y2="270.4"/><line class="cls-7" x1="161.59" y1="250.51" x2="161.59" y2="270.4"/><line class="cls-7" x1="66.59" y1="270.51" x2="66.59" y2="290.4"/><line class="cls-7" x1="104.59" y1="270.51" x2="104.59" y2="290.4"/><line class="cls-7" x1="143.59" y1="270.51" x2="143.59" y2="290.4"/><line class="cls-7" x1="85.59" y1="290.51" x2="85.59" y2="310.4"/><line class="cls-7" x1="123.59" y1="290.51" x2="123.59" y2="310.4"/><line class="cls-7" x1="162.59" y1="290.51" x2="162.59" y2="310.4"/><line class="cls-7" x1="66.59" y1="310.51" x2="66.59" y2="330.4"/><line class="cls-7" x1="104.59" y1="310.51" x2="104.59" y2="330.4"/><line class="cls-7" x1="143.59" y1="310.51" x2="143.59" y2="330.4"/><line class="cls-7" x1="84.59" y1="331.51" x2="84.59" y2="351.4"/><line class="cls-7" x1="122.59" y1="331.51" x2="122.59" y2="351.4"/><line class="cls-7" x1="161.59" y1="331.51" x2="161.59" y2="351.4"/><line class="cls-7" x1="521.6" y1="10.67" x2="644.54" y2="10.67"/><line class="cls-7" x1="521.6" y1="30.67" x2="644.54" y2="30.67"/><line class="cls-7" x1="521.6" y1="50.67" x2="644.54" y2="50.67"/><line class="cls-7" x1="521.6" y1="70.67" x2="644.54" y2="70.67"/><line class="cls-7" x1="523.6" y1="90.67" x2="646.54" y2="90.67"/><line class="cls-7" x1="523.6" y1="110.67" x2="646.54" y2="110.67"/><line class="cls-7" x1="524.6" y1="130.67" x2="647.54" y2="130.67"/><line class="cls-7" x1="521.6" y1="150.67" x2="644.54" y2="150.67"/><line class="cls-7" x1="521.6" y1="170.67" x2="644.54" y2="170.67"/><line class="cls-7" x1="521.6" y1="190.67" x2="644.54" y2="190.67"/><line class="cls-7" x1="523.6" y1="210.67" x2="646.54" y2="210.67"/><line class="cls-7" x1="523.6" y1="230.67" x2="646.54" y2="230.67"/><line class="cls-7" x1="522.6" y1="250.67" x2="645.54" y2="250.67"/><line class="cls-7" x1="522.6" y1="270.67" x2="645.54" y2="270.67"/><line class="cls-7" x1="522.6" y1="290.67" x2="645.54" y2="290.67"/><line class="cls-7" x1="521.6" y1="310.67" x2="645.54" y2="310.67"/><line class="cls-7" x1="521.6" y1="330.67" x2="647.54" y2="330.67"/><line class="cls-7" x1="551.59" y1="10.51" x2="551.59" y2="30.4"/><line class="cls-7" x1="589.59" y1="10.51" x2="589.59" y2="30.4"/><line class="cls-7" x1="628.59" y1="10.51" x2="628.59" y2="30.4"/><line class="cls-7" x1="532.59" y1="30.51" x2="532.59" y2="50.4"/><line class="cls-7" x1="570.59" y1="30.51" x2="570.59" y2="50.4"/><line class="cls-7" x1="609.59" y1="30.51" x2="609.59" y2="50.4"/><line class="cls-7" x1="550.59" y1="50.51" x2="550.59" y2="70.4"/><line class="cls-7" x1="588.59" y1="50.51" x2="588.59" y2="70.4"/><line class="cls-7" x1="627.59" y1="50.51" x2="627.59" y2="70.4"/><line class="cls-7" x1="532.59" y1="70.51" x2="532.59" y2="90.4"/><line class="cls-7" x1="570.59" y1="70.51" x2="570.59" y2="90.4"/><line class="cls-7" x1="609.59" y1="70.51" x2="609.59" y2="90.4"/><line class="cls-7" x1="549.59" y1="90.51" x2="549.59" y2="110.4"/><line class="cls-7" x1="587.59" y1="90.51" x2="587.59" y2="110.4"/><line class="cls-7" x1="626.59" y1="90.51" x2="626.59" y2="110.4"/><line class="cls-7" x1="532.59" y1="110.51" x2="532.59" y2="130.4"/><line class="cls-7" x1="570.59" y1="110.51" x2="570.59" y2="130.4"/><line class="cls-7" x1="609.59" y1="110.51" x2="609.59" y2="130.4"/><line class="cls-7" x1="549.59" y1="130.51" x2="549.59" y2="150.4"/><line class="cls-7" x1="587.59" y1="130.51" x2="587.59" y2="150.4"/><line class="cls-7" x1="626.59" y1="130.51" x2="626.59" y2="150.4"/><line class="cls-7" x1="531.59" y1="150.51" x2="531.59" y2="170.4"/><line class="cls-7" x1="569.59" y1="150.51" x2="569.59" y2="170.4"/><line class="cls-7" x1="608.59" y1="150.51" x2="608.59" y2="170.4"/><line class="cls-7" x1="549.59" y1="170.51" x2="549.59" y2="190.4"/><line class="cls-7" x1="587.59" y1="170.51" x2="587.59" y2="190.4"/><line class="cls-7" x1="626.59" y1="170.51" x2="626.59" y2="190.4"/><line class="cls-7" x1="532.59" y1="190.51" x2="532.59" y2="210.4"/><line class="cls-7" x1="570.59" y1="190.51" x2="570.59" y2="210.4"/><line class="cls-7" x1="609.59" y1="190.51" x2="609.59" y2="210.4"/><line class="cls-7" x1="549.59" y1="210.51" x2="549.59" y2="230.4"/><line class="cls-7" x1="587.59" y1="210.51" x2="587.59" y2="230.4"/><line class="cls-7" x1="626.59" y1="210.51" x2="626.59" y2="230.4"/><line class="cls-7" x1="531.59" y1="230.51" x2="531.59" y2="250.4"/><line class="cls-7" x1="569.59" y1="230.51" x2="569.59" y2="250.4"/><line class="cls-7" x1="608.59" y1="230.51" x2="608.59" y2="250.4"/><line class="cls-7" x1="550.59" y1="250.51" x2="550.59" y2="270.4"/><line class="cls-7" x1="588.59" y1="250.51" x2="588.59" y2="270.4"/><line class="cls-7" x1="627.59" y1="250.51" x2="627.59" y2="270.4"/><line class="cls-7" x1="532.59" y1="270.51" x2="532.59" y2="290.4"/><line class="cls-7" x1="570.59" y1="270.51" x2="570.59" y2="290.4"/><line class="cls-7" x1="609.59" y1="270.51" x2="609.59" y2="290.4"/><line class="cls-7" x1="551.59" y1="290.51" x2="551.59" y2="310.4"/><line class="cls-7" x1="589.59" y1="290.51" x2="589.59" y2="310.4"/><line class="cls-7" x1="628.59" y1="290.51" x2="628.59" y2="310.4"/><line class="cls-7" x1="532.59" y1="310.51" x2="532.59" y2="330.4"/><line class="cls-7" x1="570.59" y1="310.51" x2="570.59" y2="330.4"/><line class="cls-7" x1="609.59" y1="310.51" x2="609.59" y2="330.4"/><line class="cls-7" x1="550.59" y1="331.51" x2="550.59" y2="351.4"/><line class="cls-7" x1="588.59" y1="331.51" x2="588.59" y2="351.4"/><line class="cls-7" x1="627.59" y1="331.51" x2="627.59" y2="351.4"/><line class="cls-7" x1="644.6" y1="10.67" x2="692.78" y2="10.67"/><line class="cls-7" x1="644.6" y1="30.67" x2="692.78" y2="30.67"/><line class="cls-7" x1="644.6" y1="50.67" x2="692.78" y2="50.67"/><line class="cls-7" x1="644.6" y1="70.67" x2="693.34" y2="70.67"/><line class="cls-7" x1="646.6" y1="90.67" x2="693.34" y2="90.67"/><line class="cls-7" x1="646.6" y1="110.67" x2="693.34" y2="110.67"/><line class="cls-7" x1="647.6" y1="130.67" x2="693.34" y2="130.67"/><line class="cls-7" x1="644.6" y1="150.67" x2="693.34" y2="150.67"/><line class="cls-7" x1="644.6" y1="170.67" x2="692.78" y2="170.67"/><line class="cls-7" x1="644.6" y1="190.67" x2="693.34" y2="190.67"/><line class="cls-7" x1="646.6" y1="210.67" x2="692.78" y2="210.67"/><line class="cls-7" x1="646.6" y1="230.67" x2="693.34" y2="230.67"/><line class="cls-7" x1="645.6" y1="250.67" x2="693.91" y2="250.67"/><line class="cls-7" x1="645.6" y1="270.67" x2="693.34" y2="270.67"/><line class="cls-7" x1="645.6" y1="290.67" x2="768.54" y2="290.67"/><line class="cls-7" x1="644.6" y1="310.67" x2="768.54" y2="310.67"/><line class="cls-7" x1="644.6" y1="330.67" x2="770.54" y2="330.67"/><line class="cls-7" x1="674.59" y1="10.51" x2="674.59" y2="30.4"/><line class="cls-7" x1="655.59" y1="30.51" x2="655.59" y2="50.4"/><line class="cls-7" x1="673.59" y1="50.51" x2="673.59" y2="70.4"/><line class="cls-7" x1="655.59" y1="70.51" x2="655.59" y2="90.4"/><line class="cls-7" x1="672.59" y1="90.51" x2="672.59" y2="110.4"/><line class="cls-7" x1="655.59" y1="110.51" x2="655.59" y2="130.4"/><line class="cls-7" x1="672.59" y1="130.51" x2="672.59" y2="150.4"/><line class="cls-7" x1="654.59" y1="150.51" x2="654.59" y2="170.4"/><line class="cls-7" x1="672.59" y1="170.51" x2="672.59" y2="190.4"/><line class="cls-7" x1="655.59" y1="190.51" x2="655.59" y2="210.4"/><line class="cls-7" x1="672.59" y1="210.51" x2="672.59" y2="230.4"/><line class="cls-7" x1="654.59" y1="230.51" x2="654.59" y2="250.4"/><line class="cls-7" x1="673.59" y1="250.51" x2="673.59" y2="270.4"/><line class="cls-7" x1="655.59" y1="270.51" x2="655.59" y2="290.4"/><line class="cls-7" x1="674.59" y1="290.51" x2="674.59" y2="310.4"/><line class="cls-7" x1="712.59" y1="290.51" x2="712.59" y2="310.4"/><line class="cls-7" x1="751.59" y1="290.51" x2="751.59" y2="310.4"/><line class="cls-7" x1="655.59" y1="310.51" x2="655.59" y2="330.4"/><line class="cls-7" x1="693.59" y1="310.51" x2="693.59" y2="330.4"/><line class="cls-7" x1="732.59" y1="310.51" x2="732.59" y2="330.4"/><line class="cls-7" x1="673.59" y1="331.51" x2="673.59" y2="351.4"/><line class="cls-7" x1="711.59" y1="331.51" x2="711.59" y2="351.4"/><line class="cls-7" x1="750.59" y1="331.51" x2="750.59" y2="351.4"/><line class="cls-7" x1="769.6" y1="290.67" x2="892.54" y2="290.67"/><line class="cls-7" x1="768.6" y1="310.67" x2="892.54" y2="310.67"/><line class="cls-7" x1="768.6" y1="330.67" x2="894.54" y2="330.67"/><line class="cls-7" x1="798.59" y1="290.51" x2="798.59" y2="310.4"/><line class="cls-7" x1="836.59" y1="290.51" x2="836.59" y2="310.4"/><line class="cls-7" x1="875.59" y1="290.51" x2="875.59" y2="310.4"/><line class="cls-7" x1="779.59" y1="310.51" x2="779.59" y2="330.4"/><line class="cls-7" x1="817.59" y1="310.51" x2="817.59" y2="330.4"/><line class="cls-7" x1="856.59" y1="310.51" x2="856.59" y2="330.4"/><line class="cls-7" x1="797.59" y1="331.51" x2="797.59" y2="351.4"/><line class="cls-7" x1="835.59" y1="331.51" x2="835.59" y2="351.4"/><line class="cls-7" x1="874.59" y1="331.51" x2="874.59" y2="351.4"/><line class="cls-7" x1="893.6" y1="290.67" x2="1016.54" y2="290.67"/><line class="cls-7" x1="892.6" y1="310.67" x2="1016.54" y2="310.67"/><line class="cls-7" x1="892.6" y1="330.67" x2="1018.54" y2="330.67"/><line class="cls-7" x1="922.59" y1="290.51" x2="922.59" y2="310.4"/><line class="cls-7" x1="960.59" y1="290.51" x2="960.59" y2="310.4"/><line class="cls-7" x1="999.59" y1="290.51" x2="999.59" y2="310.4"/><line class="cls-7" x1="903.59" y1="310.51" x2="903.59" y2="330.4"/><line class="cls-7" x1="941.59" y1="310.51" x2="941.59" y2="330.4"/><line class="cls-7" x1="980.59" y1="310.51" x2="980.59" y2="330.4"/><line class="cls-7" x1="921.59" y1="331.51" x2="921.59" y2="351.4"/><line class="cls-7" x1="959.59" y1="331.51" x2="959.59" y2="351.4"/><line class="cls-7" x1="998.59" y1="331.51" x2="998.59" y2="351.4"/><line class="cls-7" x1="1077.65" y1="10.67" x2="1135.54" y2="10.67"/><line class="cls-7" x1="1077.65" y1="30.67" x2="1135.54" y2="30.67"/><line class="cls-7" x1="1077.08" y1="50.67" x2="1135.54" y2="50.67"/><line class="cls-7" x1="1077.65" y1="70.67" x2="1135.54" y2="70.67"/><line class="cls-7" x1="1077.08" y1="90.67" x2="1137.54" y2="90.67"/><line class="cls-7" x1="1077.65" y1="110.67" x2="1137.54" y2="110.67"/><line class="cls-7" x1="1077.65" y1="130.67" x2="1138.54" y2="130.67"/><line class="cls-7" x1="1077.65" y1="150.67" x2="1135.54" y2="150.67"/><line class="cls-7" x1="1077.65" y1="170.67" x2="1135.54" y2="170.67"/><line class="cls-7" x1="1077.65" y1="190.67" x2="1135.54" y2="190.67"/><line class="cls-7" x1="1077.65" y1="210.67" x2="1137.54" y2="210.67"/><line class="cls-7" x1="1077.65" y1="230.67" x2="1137.54" y2="230.67"/><line class="cls-7" x1="1077.65" y1="250.67" x2="1136.54" y2="250.67"/><line class="cls-7" x1="1077.65" y1="270.67" x2="1136.54" y2="270.67"/><line class="cls-7" x1="1013.6" y1="290.67" x2="1136.54" y2="290.67"/><line class="cls-7" x1="1012.6" y1="310.67" x2="1136.54" y2="310.67"/><line class="cls-7" x1="1012.6" y1="330.67" x2="1138.54" y2="330.67"/><line class="cls-7" x1="1119.59" y1="10.51" x2="1119.59" y2="30.4"/><line class="cls-7" x1="1100.59" y1="30.51" x2="1100.59" y2="50.4"/><line class="cls-7" x1="1118.59" y1="50.51" x2="1118.59" y2="70.4"/><line class="cls-7" x1="1100.59" y1="70.51" x2="1100.59" y2="90.4"/><line class="cls-7" x1="1117.59" y1="90.51" x2="1117.59" y2="110.4"/><line class="cls-7" x1="1100.59" y1="110.51" x2="1100.59" y2="130.4"/><line class="cls-7" x1="1117.59" y1="130.51" x2="1117.59" y2="150.4"/><line class="cls-7" x1="1099.59" y1="150.51" x2="1099.59" y2="170.4"/><line class="cls-7" x1="1117.59" y1="170.51" x2="1117.59" y2="190.4"/><line class="cls-7" x1="1100.59" y1="190.51" x2="1100.59" y2="210.4"/><line class="cls-7" x1="1117.59" y1="210.51" x2="1117.59" y2="230.4"/><line class="cls-7" x1="1099.59" y1="230.51" x2="1099.59" y2="250.4"/><line class="cls-7" x1="1118.59" y1="250.51" x2="1118.59" y2="270.4"/><line class="cls-7" x1="1100.59" y1="270.51" x2="1100.59" y2="290.4"/><line class="cls-7" x1="1042.59" y1="290.51" x2="1042.59" y2="310.4"/><line class="cls-7" x1="1080.59" y1="290.51" x2="1080.59" y2="310.4"/><line class="cls-7" x1="1119.59" y1="290.51" x2="1119.59" y2="310.4"/><line class="cls-7" x1="1023.59" y1="310.51" x2="1023.59" y2="330.4"/><line class="cls-7" x1="1061.59" y1="310.51" x2="1061.59" y2="330.4"/><line class="cls-7" x1="1100.59" y1="310.51" x2="1100.59" y2="330.4"/><line class="cls-7" x1="1041.59" y1="331.51" x2="1041.59" y2="351.4"/><line class="cls-7" x1="1079.59" y1="331.51" x2="1079.59" y2="351.4"/><line class="cls-7" x1="1118.59" y1="331.51" x2="1118.59" y2="351.4"/><rect class="cls-8" x="1120.04" y="2.21" width="123" height="348"/><line class="cls-7" x1="1119.6" y1="11.67" x2="1242.54" y2="11.67"/><line class="cls-7" x1="1119.6" y1="31.67" x2="1242.54" y2="31.67"/><line class="cls-7" x1="1119.6" y1="51.67" x2="1242.54" y2="51.67"/><line class="cls-7" x1="1119.6" y1="71.67" x2="1242.54" y2="71.67"/><line class="cls-7" x1="1121.6" y1="91.67" x2="1244.54" y2="91.67"/><line class="cls-7" x1="1121.6" y1="111.67" x2="1244.54" y2="111.67"/><line class="cls-7" x1="1122.6" y1="131.67" x2="1245.54" y2="131.67"/><line class="cls-7" x1="1119.6" y1="151.67" x2="1242.54" y2="151.67"/><line class="cls-7" x1="1119.6" y1="171.67" x2="1242.54" y2="171.67"/><line class="cls-7" x1="1119.6" y1="191.67" x2="1242.54" y2="191.67"/><line class="cls-7" x1="1121.6" y1="211.67" x2="1244.54" y2="211.67"/><line class="cls-7" x1="1121.6" y1="231.67" x2="1244.54" y2="231.67"/><line class="cls-7" x1="1120.6" y1="251.67" x2="1243.54" y2="251.67"/><line class="cls-7" x1="1120.6" y1="271.67" x2="1243.54" y2="271.67"/><line class="cls-7" x1="1120.6" y1="291.67" x2="1243.54" y2="291.67"/><line class="cls-7" x1="1120.6" y1="311.67" x2="1243.54" y2="311.67"/><line class="cls-7" x1="1122.6" y1="331.67" x2="1245.54" y2="331.67"/><line class="cls-7" x1="1149.59" y1="11.51" x2="1149.59" y2="31.4"/><line class="cls-7" x1="1187.59" y1="11.51" x2="1187.59" y2="31.4"/><line class="cls-7" x1="1226.59" y1="11.51" x2="1226.59" y2="31.4"/><line class="cls-7" x1="1130.59" y1="31.51" x2="1130.59" y2="51.4"/><line class="cls-7" x1="1168.59" y1="31.51" x2="1168.59" y2="51.4"/><line class="cls-7" x1="1207.59" y1="31.51" x2="1207.59" y2="51.4"/><line class="cls-7" x1="1148.59" y1="51.51" x2="1148.59" y2="71.4"/><line class="cls-7" x1="1186.59" y1="51.51" x2="1186.59" y2="71.4"/><line class="cls-7" x1="1225.59" y1="51.51" x2="1225.59" y2="71.4"/><line class="cls-7" x1="1130.59" y1="71.51" x2="1130.59" y2="91.4"/><line class="cls-7" x1="1168.59" y1="71.51" x2="1168.59" y2="91.4"/><line class="cls-7" x1="1207.59" y1="71.51" x2="1207.59" y2="91.4"/><line class="cls-7" x1="1147.59" y1="91.51" x2="1147.59" y2="111.4"/><line class="cls-7" x1="1185.59" y1="91.51" x2="1185.59" y2="111.4"/><line class="cls-7" x1="1224.59" y1="91.51" x2="1224.59" y2="111.4"/><line class="cls-7" x1="1130.59" y1="111.51" x2="1130.59" y2="131.4"/><line class="cls-7" x1="1168.59" y1="111.51" x2="1168.59" y2="131.4"/><line class="cls-7" x1="1207.59" y1="111.51" x2="1207.59" y2="131.4"/><line class="cls-7" x1="1147.59" y1="131.51" x2="1147.59" y2="151.4"/><line class="cls-7" x1="1185.59" y1="131.51" x2="1185.59" y2="151.4"/><line class="cls-7" x1="1224.59" y1="131.51" x2="1224.59" y2="151.4"/><line class="cls-7" x1="1129.59" y1="151.51" x2="1129.59" y2="171.4"/><line class="cls-7" x1="1167.59" y1="151.51" x2="1167.59" y2="171.4"/><line class="cls-7" x1="1206.59" y1="151.51" x2="1206.59" y2="171.4"/><line class="cls-7" x1="1147.59" y1="171.51" x2="1147.59" y2="191.4"/><line class="cls-7" x1="1185.59" y1="171.51" x2="1185.59" y2="191.4"/><line class="cls-7" x1="1224.59" y1="171.51" x2="1224.59" y2="191.4"/><line class="cls-7" x1="1130.59" y1="191.51" x2="1130.59" y2="211.4"/><line class="cls-7" x1="1168.59" y1="191.51" x2="1168.59" y2="211.4"/><line class="cls-7" x1="1207.59" y1="191.51" x2="1207.59" y2="211.4"/><line class="cls-7" x1="1147.59" y1="211.51" x2="1147.59" y2="231.4"/><line class="cls-7" x1="1185.59" y1="211.51" x2="1185.59" y2="231.4"/><line class="cls-7" x1="1224.59" y1="211.51" x2="1224.59" y2="231.4"/><line class="cls-7" x1="1129.59" y1="231.51" x2="1129.59" y2="251.4"/><line class="cls-7" x1="1167.59" y1="231.51" x2="1167.59" y2="251.4"/><line class="cls-7" x1="1206.59" y1="231.51" x2="1206.59" y2="251.4"/><line class="cls-7" x1="1148.59" y1="251.51" x2="1148.59" y2="271.4"/><line class="cls-7" x1="1186.59" y1="251.51" x2="1186.59" y2="271.4"/><line class="cls-7" x1="1225.59" y1="251.51" x2="1225.59" y2="271.4"/><line class="cls-7" x1="1130.59" y1="271.51" x2="1130.59" y2="291.4"/><line class="cls-7" x1="1168.59" y1="271.51" x2="1168.59" y2="291.4"/><line class="cls-7" x1="1207.59" y1="271.51" x2="1207.59" y2="291.4"/><line class="cls-7" x1="1149.59" y1="291.51" x2="1149.59" y2="311.4"/><line class="cls-7" x1="1187.59" y1="291.51" x2="1187.59" y2="311.4"/><line class="cls-7" x1="1226.59" y1="291.51" x2="1226.59" y2="311.4"/><line class="cls-7" x1="1130.59" y1="311.51" x2="1130.59" y2="331.4"/><line class="cls-7" x1="1168.59" y1="311.51" x2="1168.59" y2="331.4"/><line class="cls-7" x1="1207.59" y1="311.51" x2="1207.59" y2="331.4"/><line class="cls-7" x1="1148.59" y1="332.51" x2="1148.59" y2="352.4"/><line class="cls-7" x1="1186.59" y1="332.51" x2="1186.59" y2="352.4"/><line class="cls-7" x1="1225.59" y1="332.51" x2="1225.59" y2="352.4"/><polygon class="cls-9" points="657.1 778.88 406.1 906.88 350.54 861.71 611.54 746.71 657.1 778.88"/><polygon class="cls-9" points="406.1 906.88 406.1 938.88 657.1 809.88 657.1 778.88 406.1 906.88"/><polygon class="cls-9" points="350.54 861.71 351.54 890.71 406.1 938.88 406.1 906.88 350.54 861.71"/><polygon class="cls-9" points="612.1 725.88 354.1 835.88 284.1 787.88 564.54 695.71 612.1 725.88"/><polygon class="cls-9" points="284.1 787.88 285.54 809.71 351.01 862.13 351.01 835.88 284.1 787.88"/><polygon class="cls-9" points="351.01 835.88 612.1 725.88 611.1 746.88 351.01 862.13 351.01 835.88"/><polygon class="cls-9" points="563.54 653.71 282.18 735.87 244.54 684.71 502.54 628.71 563.54 653.71"/><polygon class="cls-9" points="282.18 735.87 284.1 787.88 563.89 696.19 563.89 653.71 282.18 735.87"/><polygon class="cls-9" points="244.54 684.71 248.54 738.71 284.1 787.88 282.18 735.87 244.54 684.71"/><rect class="cls-10" x="0.54" y="349.71" width="1301" height="102.5"/><polygon class="cls-9" points="496.54 629.71 244.54 684.69 242.54 644.71 497.54 589.71 496.54 629.71"/><polygon class="cls-9" points="242.54 644.71 249.54 606.71 457.54 566.71 497.54 589.71 242.54 644.71"/><polygon class="cls-9" points="249.54 606.71 247.54 571.71 458.54 537.71 457.54 566.71 249.54 606.71"/><polygon class="cls-9" points="247.54 571.71 260.54 537.71 423.54 514.71 458.54 537.71 247.54 571.71"/><polygon class="cls-9" points="260.54 537.71 260.54 503.71 422.54 491.71 423.54 514.71 260.54 537.71"/><polygon class="cls-9" points="260.54 503.71 278.54 476.71 410.54 470.71 422.54 491.71 260.54 503.71"/><polygon class="cls-9" points="278.54 476.71 278.54 433.71 409.54 433.71 409.54 470.71 278.54 476.71"/><polygon class="cls-9" points="278.54 433.71 289.54 418.71 402.54 418.71 409.54 433.71 278.54 433.71"/></g></g></svg>