<svg xmlns="http://www.w3.org/2000/svg" viewBox="0 0 1301.19 355.6"><defs><style>.cls-1,.cls-2,.cls-3,.cls-4{fill:#69a5e8;stroke:#0045af;opacity:0.31;}.cls-1,.cls-2,.cls-3,.cls-4,.cls-5{stroke-linecap:round;stroke-linejoin:round;}.cls-1{stroke-width:1.58px;}.cls-2{stroke-width:1.51px;}.cls-3{stroke-width:1.49px;}.cls-4{stroke-width:1.26px;}.cls-5{fill:none;stroke:#fff;stroke-width:2.04px;}</style></defs><g id="Layer_2" data-name="Layer 2"><g id="Layer_10" data-name="Layer 10"><rect class="cls-1" x="3.56" y="0.79" width="1296" height="351"/><rect class="cls-1" x="695.56" y="2.79" width="382" height="290"/><rect class="cls-2" x="705.78" y="1.79" width="363.56" height="281"/><rect class="cls-1" x="705.56" y="1.79" width="172" height="281"/><rect class="cls-1" x="896.56" y="1.79" width="172" height="281"/><rect class="cls-3" x="711.56" y="2.29" width="160" height="270.7"/><rect class="cls-3" x="902.56" y="2.29" width="160" height="270.7"/><rect class="cls-4" x="705.06" y="155.29" width="365" height="23"/><line class="cls-5" x1="1.02" y1="12.63" x2="54.8" y2="12.63"/><line class="cls-5" x1="1.02" y1="32.63" x2="54.8" y2="32.63"/><line class="cls-5" x1="1.02" y1="52.63" x2="54.8" y2="52.63"/><line class="cls-5" x1="1.02" y1="72.63" x2="54.8" y2="72.63"/><line class="cls-5" x1="3.02" y1="92.63" x2="55.18" y2="92.63"/><line class="cls-5" x1="3.02" y1="112.63" x2="54.8" y2="112.63"/><line class="cls-5" x1="4.02" y1="132.63" x2="54.8" y2="132.63"/><line class="cls-5" x1="1.02" y1="152.63" x2="54.42" y2="152.63"/><line class="cls-5" x1="1.02" y1="172.63" x2="54.42" y2="172.63"/><line class="cls-5" x1="1.02" y1="192.63" x2="54.8" y2="192.63"/><line class="cls-5" x1="3.02" y1="212.63" x2="54.8" y2="212.63"/><line class="cls-5" x1="3.02" y1="232.63" x2="54.8" y2="232.63"/><line class="cls-5" x1="2.02" y1="252.63" x2="54.8" y2="252.63"/><line class="cls-5" x1="2.02" y1="272.63" x2="55.55" y2="272.63"/><line class="cls-5" x1="2.02" y1="292.63" x2="55.93" y2="292.63"/><line class="cls-5" x1="2.02" y1="312.63" x2="55.55" y2="312.63"/><line class="cls-5" x1="4.02" y1="332.63" x2="55.55" y2="332.63"/><line class="cls-5" x1="31.01" y1="12.47" x2="31.01" y2="32.36"/><line class="cls-5" x1="12.01" y1="32.47" x2="12.01" y2="52.36"/><line class="cls-5" x1="50.01" y1="32.47" x2="50.01" y2="52.36"/><line class="cls-5" x1="30.01" y1="52.47" x2="30.01" y2="72.36"/><line class="cls-5" x1="12.01" y1="72.47" x2="12.01" y2="92.36"/><line class="cls-5" x1="50.01" y1="72.47" x2="50.01" y2="92.36"/><line class="cls-5" x1="29.01" y1="92.47" x2="29.01" y2="112.36"/><line class="cls-5" x1="12.01" y1="112.47" x2="12.01" y2="132.36"/><line class="cls-5" x1="50.01" y1="112.47" x2="50.01" y2="132.36"/><line class="cls-5" x1="29.01" y1="132.47" x2="29.01" y2="152.36"/><line class="cls-5" x1="11.01" y1="152.47" x2="11.01" y2="172.36"/><line class="cls-5" x1="49.01" y1="152.47" x2="49.01" y2="172.36"/><line class="cls-5" x1="29.01" y1="172.47" x2="29.01" y2="192.36"/><line class="cls-5" x1="12.01" y1="192.47" x2="12.01" y2="212.36"/><line class="cls-5" x1="50.01" y1="192.47" x2="50.01" y2="212.36"/><line class="cls-5" x1="29.01" y1="212.47" x2="29.01" y2="232.36"/><line class="cls-5" x1="11.01" y1="232.47" x2="11.01" y2="252.36"/><line class="cls-5" x1="49.01" y1="232.47" x2="49.01" y2="252.36"/><line class="cls-5" x1="30.01" y1="252.47" x2="30.01" y2="272.36"/><line class="cls-5" x1="12.01" y1="272.47" x2="12.01" y2="292.36"/><line class="cls-5" x1="50.01" y1="272.47" x2="50.01" y2="292.36"/><line class="cls-5" x1="31.01" y1="292.47" x2="31.01" y2="312.36"/><line class="cls-5" x1="12.01" y1="312.47" x2="12.01" y2="332.36"/><line class="cls-5" x1="50.01" y1="312.47" x2="50.01" y2="332.36"/><line class="cls-5" x1="30.01" y1="333.47" x2="30.01" y2="353.36"/><line class="cls-5" x1="467.02" y1="12.63" x2="520.8" y2="12.63"/><line class="cls-5" x1="467.02" y1="32.63" x2="520.8" y2="32.63"/><line class="cls-5" x1="467.02" y1="52.63" x2="520.8" y2="52.63"/><line class="cls-5" x1="467.02" y1="72.63" x2="520.8" y2="72.63"/><line class="cls-5" x1="465.56" y1="92.79" x2="521.18" y2="92.63"/><line class="cls-5" x1="464.56" y1="112.63" x2="520.8" y2="112.63"/><line class="cls-5" x1="463.56" y1="132.63" x2="520.8" y2="132.63"/><line class="cls-5" x1="467.02" y1="152.63" x2="520.42" y2="152.63"/><line class="cls-5" x1="467.02" y1="172.63" x2="520.42" y2="172.63"/><line class="cls-5" x1="467.02" y1="192.63" x2="520.8" y2="192.63"/><line class="cls-5" x1="464.56" y1="212.63" x2="520.8" y2="212.63"/><line class="cls-5" x1="464.56" y1="232.63" x2="520.8" y2="232.63"/><line class="cls-5" x1="464.56" y1="252.63" x2="520.8" y2="252.63"/><line class="cls-5" x1="464.56" y1="272.63" x2="521.55" y2="272.63"/><line class="cls-5" x1="451.56" y1="292.63" x2="521.93" y2="292.63"/><line class="cls-5" x1="457.56" y1="312.63" x2="521.55" y2="312.63"/><line class="cls-5" x1="458.56" y1="332.63" x2="521.55" y2="332.63"/><line class="cls-5" x1="497.01" y1="12.47" x2="497.01" y2="32.36"/><line class="cls-5" x1="478.01" y1="32.47" x2="478.01" y2="52.36"/><line class="cls-5" x1="516.01" y1="32.47" x2="516.01" y2="52.36"/><line class="cls-5" x1="496.01" y1="52.47" x2="496.01" y2="72.36"/><line class="cls-5" x1="478.01" y1="72.47" x2="478.01" y2="92.36"/><line class="cls-5" x1="516.01" y1="72.47" x2="516.01" y2="92.36"/><line class="cls-5" x1="495.01" y1="92.47" x2="495.01" y2="112.36"/><line class="cls-5" x1="478.01" y1="112.47" x2="478.01" y2="132.36"/><line class="cls-5" x1="516.01" y1="112.47" x2="516.01" y2="132.36"/><line class="cls-5" x1="495.01" y1="132.47" x2="495.01" y2="152.36"/><line class="cls-5" x1="477.01" y1="152.47" x2="477.01" y2="172.36"/><line class="cls-5" x1="515.01" y1="152.47" x2="515.01" y2="172.36"/><line class="cls-5" x1="495.01" y1="172.47" x2="495.01" y2="192.36"/><line class="cls-5" x1="478.01" y1="192.47" x2="478.01" y2="212.36"/><line class="cls-5" x1="516.01" y1="192.47" x2="516.01" y2="212.36"/><line class="cls-5" x1="495.01" y1="212.47" x2="495.01" y2="232.36"/><line class="cls-5" x1="477.01" y1="232.47" x2="477.01" y2="252.36"/><line class="cls-5" x1="515.01" y1="232.47" x2="515.01" y2="252.36"/><line class="cls-5" x1="496.01" y1="252.47" x2="496.01" y2="272.36"/><line class="cls-5" x1="478.01" y1="272.47" x2="478.01" y2="292.36"/><line class="cls-5" x1="516.01" y1="272.47" x2="516.01" y2="292.36"/><line class="cls-5" x1="497.01" y1="292.47" x2="497.01" y2="312.36"/><line class="cls-5" x1="478.01" y1="312.47" x2="478.01" y2="332.36"/><line class="cls-5" x1="516.01" y1="312.47" x2="516.01" y2="332.36"/><line class="cls-5" x1="496.01" y1="333.47" x2="496.01" y2="353.36"/><line class="cls-5" x1="250.94" y1="11.64" x2="180.15" y2="11.64"/><line class="cls-5" x1="256.02" y1="332.64" x2="179.15" y2="332.64"/><line class="cls-5" x1="256.59" y1="312.64" x2="179.15" y2="312.64"/><line class="cls-5" x1="250.38" y1="292.64" x2="179.15" y2="292.64"/><line class="cls-5" x1="264.49" y1="292.64" x2="250.38" y2="292.64"/><line class="cls-5" x1="249.25" y1="272.64" x2="177.15" y2="272.64"/><line class="cls-5" x1="249.81" y1="252.64" x2="177.15" y2="252.64"/><line class="cls-5" x1="249.81" y1="232.64" x2="176.15" y2="232.64"/><line class="cls-5" x1="249.81" y1="212.64" x2="179.15" y2="212.64"/><line class="cls-5" x1="250.38" y1="192.64" x2="179.15" y2="192.64"/><line class="cls-5" x1="249.81" y1="172.64" x2="179.15" y2="172.64"/><line class="cls-5" x1="249.25" y1="152.64" x2="177.15" y2="152.64"/><line class="cls-5" x1="249.25" y1="132.64" x2="177.15" y2="132.64"/><line class="cls-5" x1="249.81" y1="112.64" x2="178.15" y2="112.64"/><line class="cls-5" x1="250.38" y1="92.64" x2="178.15" y2="92.64"/><line class="cls-5" x1="250.38" y1="72.64" x2="178.15" y2="72.64"/><line class="cls-5" x1="250.38" y1="52.64" x2="178.15" y2="52.64"/><line class="cls-5" x1="250.38" y1="32.64" x2="176.15" y2="32.64"/><line class="cls-5" x1="234.1" y1="352.81" x2="234.1" y2="332.91"/><line class="cls-5" x1="195.1" y1="352.81" x2="195.1" y2="332.91"/><line class="cls-5" x1="253.1" y1="332.81" x2="253.1" y2="312.91"/><line class="cls-5" x1="214.1" y1="332.81" x2="214.1" y2="312.91"/><line class="cls-5" x1="235.1" y1="312.81" x2="235.1" y2="292.91"/><line class="cls-5" x1="196.1" y1="312.81" x2="196.1" y2="292.91"/><line class="cls-5" x1="214.1" y1="292.81" x2="214.1" y2="272.91"/><line class="cls-5" x1="236.1" y1="272.81" x2="236.1" y2="252.91"/><line class="cls-5" x1="197.1" y1="272.81" x2="197.1" y2="252.91"/><line class="cls-5" x1="214.1" y1="252.81" x2="214.1" y2="232.91"/><line class="cls-5" x1="236.1" y1="232.81" x2="236.1" y2="212.91"/><line class="cls-5" x1="197.1" y1="232.81" x2="197.1" y2="212.91"/><line class="cls-5" x1="215.1" y1="212.81" x2="215.1" y2="192.91"/><line class="cls-5" x1="236.1" y1="192.81" x2="236.1" y2="172.91"/><line class="cls-5" x1="197.1" y1="192.81" x2="197.1" y2="172.91"/><line class="cls-5" x1="214.1" y1="172.81" x2="214.1" y2="152.91"/><line class="cls-5" x1="236.1" y1="152.81" x2="236.1" y2="132.91"/><line class="cls-5" x1="197.1" y1="152.81" x2="197.1" y2="132.91"/><line class="cls-5" x1="215.1" y1="132.81" x2="215.1" y2="112.91"/><line class="cls-5" x1="235.1" y1="112.81" x2="235.1" y2="92.91"/><line class="cls-5" x1="196.1" y1="112.81" x2="196.1" y2="92.91"/><line class="cls-5" x1="214.1" y1="92.81" x2="214.1" y2="72.91"/><line class="cls-5" x1="234.1" y1="72.81" x2="234.1" y2="52.91"/><line class="cls-5" x1="195.1" y1="72.81" x2="195.1" y2="52.91"/><line class="cls-5" x1="214.1" y1="52.81" x2="214.1" y2="32.91"/><line class="cls-5" x1="235.1" y1="31.81" x2="235.1" y2="11.91"/><line class="cls-5" x1="196.1" y1="31.81" x2="196.1" y2="11.91"/><line class="cls-5" x1="1245.26" y1="13.86" x2="1299.04" y2="13.86"/><line class="cls-5" x1="1245.26" y1="33.86" x2="1299.04" y2="33.86"/><line class="cls-5" x1="1245.26" y1="53.86" x2="1299.04" y2="53.86"/><line class="cls-5" x1="1245.26" y1="73.86" x2="1299.04" y2="73.86"/><line class="cls-5" x1="1247.26" y1="93.86" x2="1299.42" y2="93.86"/><line class="cls-5" x1="1247.26" y1="113.86" x2="1299.04" y2="113.86"/><line class="cls-5" x1="1248.26" y1="133.86" x2="1299.04" y2="133.86"/><line class="cls-5" x1="1245.26" y1="153.86" x2="1298.67" y2="153.86"/><line class="cls-5" x1="1245.26" y1="173.86" x2="1298.67" y2="173.86"/><line class="cls-5" x1="1245.26" y1="193.86" x2="1299.04" y2="193.86"/><line class="cls-5" x1="1247.26" y1="213.86" x2="1299.04" y2="213.86"/><line class="cls-5" x1="1247.26" y1="233.86" x2="1299.04" y2="233.86"/><line class="cls-5" x1="1246.26" y1="253.86" x2="1299.04" y2="253.86"/><line class="cls-5" x1="1246.26" y1="273.86" x2="1299.79" y2="273.86"/><line class="cls-5" x1="1246.26" y1="293.86" x2="1300.17" y2="293.86"/><line class="cls-5" x1="1246.26" y1="313.86" x2="1299.79" y2="313.86"/><line class="cls-5" x1="1248.26" y1="333.86" x2="1299.79" y2="333.86"/><line class="cls-5" x1="1275.25" y1="13.69" x2="1275.25" y2="33.59"/><line class="cls-5" x1="1256.25" y1="33.69" x2="1256.25" y2="53.59"/><line class="cls-5" x1="1294.25" y1="33.69" x2="1294.25" y2="53.59"/><line class="cls-5" x1="1274.25" y1="53.69" x2="1274.25" y2="73.59"/><line class="cls-5" x1="1256.25" y1="73.69" x2="1256.25" y2="93.59"/><line class="cls-5" x1="1294.25" y1="73.69" x2="1294.25" y2="93.59"/><line class="cls-5" x1="1273.25" y1="93.69" x2="1273.25" y2="113.59"/><line class="cls-5" x1="1256.25" y1="113.69" x2="1256.25" y2="133.59"/><line class="cls-5" x1="1294.25" y1="113.69" x2="1294.25" y2="133.59"/><line class="cls-5" x1="1273.25" y1="133.69" x2="1273.25" y2="153.59"/><line class="cls-5" x1="1255.25" y1="153.69" x2="1255.25" y2="173.59"/><line class="cls-5" x1="1293.25" y1="153.69" x2="1293.25" y2="173.59"/><line class="cls-5" x1="1273.25" y1="173.69" x2="1273.25" y2="193.59"/><line class="cls-5" x1="1256.25" y1="193.69" x2="1256.25" y2="213.59"/><line class="cls-5" x1="1294.25" y1="193.69" x2="1294.25" y2="213.59"/><line class="cls-5" x1="1273.25" y1="213.69" x2="1273.25" y2="233.59"/><line class="cls-5" x1="1255.25" y1="233.69" x2="1255.25" y2="253.59"/><line class="cls-5" x1="1293.25" y1="233.69" x2="1293.25" y2="253.59"/><line class="cls-5" x1="1274.25" y1="253.69" x2="1274.25" y2="273.59"/><line class="cls-5" x1="1256.25" y1="273.69" x2="1256.25" y2="293.59"/><line class="cls-5" x1="1294.25" y1="273.69" x2="1294.25" y2="293.59"/><line class="cls-5" x1="1275.25" y1="293.69" x2="1275.25" y2="313.59"/><line class="cls-5" x1="1256.25" y1="313.69" x2="1256.25" y2="333.59"/><line class="cls-5" x1="1294.25" y1="313.69" x2="1294.25" y2="333.59"/><line class="cls-5" x1="1274.25" y1="334.69" x2="1274.25" y2="354.59"/></g></g></svg>