<svg xmlns="http://www.w3.org/2000/svg" viewBox="0 0 809.52 593.7"><defs><style>.cls-1{opacity:0.31;}.cls-2{fill:#69a5e8;}.cls-3{fill:#0045af;}.cls-4,.cls-5{fill:none;stroke:#0045af;stroke-linecap:round;stroke-linejoin:round;}.cls-4{stroke-width:1.71px;}.cls-5{stroke-width:0.85px;}</style></defs><g id="Layer_2" data-name="Layer 2"><g id="Layer_13" data-name="Layer 13"><g class="cls-1"><rect class="cls-2" x="27.6" y="20.47" width="754.31" height="552.76"/><path class="cls-3" d="M781.06,21.33V572.38H28.46v-551h752.6m1.71-1.71h-756V574.08h756V19.62Z"/></g><g class="cls-1"><line class="cls-4" x1="397.51" y1="21.33" x2="397.51" y2="571.52"/><line class="cls-2" x1="397.51" y1="21.33" x2="397.51" y2="571.52"/></g><g class="cls-1"><line class="cls-5" x1="371.92" y1="19.62" x2="371.92" y2="569.82"/><line class="cls-2" x1="371.92" y1="19.62" x2="371.92" y2="569.82"/></g><g class="cls-1"><line class="cls-5" x1="346.33" y1="19.62" x2="346.33" y2="569.82"/><line class="cls-2" x1="346.33" y1="19.62" x2="346.33" y2="569.82"/></g><g class="cls-1"><line class="cls-5" x1="321.59" y1="19.62" x2="321.59" y2="569.82"/><line class="cls-2" x1="321.59" y1="19.62" x2="321.59" y2="569.82"/></g><g class="cls-1"><line class="cls-5" x1="294.29" y1="19.62" x2="294.29" y2="569.82"/><line class="cls-2" x1="294.29" y1="19.62" x2="294.29" y2="569.82"/></g><g class="cls-1"><line class="cls-5" x1="272.11" y1="22.18" x2="272.11" y2="572.38"/><line class="cls-2" x1="272.11" y1="22.18" x2="272.11" y2="572.38"/></g><g class="cls-1"><line class="cls-5" x1="246.52" y1="22.18" x2="246.52" y2="572.38"/><line class="cls-2" x1="246.52" y1="22.18" x2="246.52" y2="572.38"/></g><g class="cls-1"><line class="cls-5" x1="221.79" y1="22.18" x2="221.79" y2="572.38"/><line class="cls-2" x1="221.79" y1="22.18" x2="221.79" y2="572.38"/></g><g class="cls-1"><line class="cls-5" x1="194.49" y1="22.18" x2="194.49" y2="572.38"/><line class="cls-2" x1="194.49" y1="22.18" x2="194.49" y2="572.38"/></g><g class="cls-1"><line class="cls-5" x1="168.9" y1="21.33" x2="168.9" y2="571.52"/><line class="cls-2" x1="168.9" y1="21.33" x2="168.9" y2="571.52"/></g><g class="cls-1"><line class="cls-5" x1="144.16" y1="21.33" x2="144.16" y2="571.52"/><line class="cls-2" x1="144.16" y1="21.33" x2="144.16" y2="571.52"/></g><g class="cls-1"><line class="cls-5" x1="116.86" y1="21.33" x2="116.86" y2="571.52"/><line class="cls-2" x1="116.86" y1="21.33" x2="116.86" y2="571.52"/></g><g class="cls-1"><line class="cls-5" x1="94.69" y1="21.33" x2="94.69" y2="571.52"/><line class="cls-2" x1="94.69" y1="21.33" x2="94.69" y2="571.52"/></g><g class="cls-1"><line class="cls-5" x1="69.09" y1="21.33" x2="69.09" y2="571.52"/><line class="cls-2" x1="69.09" y1="21.33" x2="69.09" y2="571.52"/></g><g class="cls-1"><line class="cls-5" x1="44.36" y1="21.33" x2="44.36" y2="571.52"/><line class="cls-2" x1="44.36" y1="21.33" x2="44.36" y2="571.52"/></g><g class="cls-1"><line class="cls-5" x1="757.06" y1="21.33" x2="757.06" y2="571.52"/><line class="cls-2" x1="757.06" y1="21.33" x2="757.06" y2="571.52"/></g><g class="cls-1"><line class="cls-5" x1="731.47" y1="21.33" x2="731.47" y2="571.52"/><line class="cls-2" x1="731.47" y1="21.33" x2="731.47" y2="571.52"/></g><g class="cls-1"><line class="cls-5" x1="706.73" y1="21.33" x2="706.73" y2="571.52"/><line class="cls-2" x1="706.73" y1="21.33" x2="706.73" y2="571.52"/></g><g class="cls-1"><line class="cls-5" x1="679.43" y1="21.33" x2="679.43" y2="571.52"/><line class="cls-2" x1="679.43" y1="21.33" x2="679.43" y2="571.52"/></g><g class="cls-1"><line class="cls-5" x1="657.25" y1="23.88" x2="657.25" y2="574.08"/><line class="cls-2" x1="657.25" y1="23.88" x2="657.25" y2="574.08"/></g><g class="cls-1"><line class="cls-5" x1="631.66" y1="23.88" x2="631.66" y2="574.08"/><line class="cls-2" x1="631.66" y1="23.88" x2="631.66" y2="574.08"/></g><g class="cls-1"><line class="cls-5" x1="606.93" y1="23.88" x2="606.93" y2="574.08"/><line class="cls-2" x1="606.93" y1="23.88" x2="606.93" y2="574.08"/></g><g class="cls-1"><line class="cls-5" x1="579.63" y1="23.88" x2="579.63" y2="574.08"/><line class="cls-2" x1="579.63" y1="23.88" x2="579.63" y2="574.08"/></g><g class="cls-1"><line class="cls-5" x1="554.04" y1="23.03" x2="554.04" y2="573.23"/><line class="cls-2" x1="554.04" y1="23.03" x2="554.04" y2="573.23"/></g><g class="cls-1"><line class="cls-5" x1="529.3" y1="23.03" x2="529.3" y2="573.23"/><line class="cls-2" x1="529.3" y1="23.03" x2="529.3" y2="573.23"/></g><g class="cls-1"><line class="cls-5" x1="502" y1="23.03" x2="502" y2="573.23"/><line class="cls-2" x1="502" y1="23.03" x2="502" y2="573.23"/></g><g class="cls-1"><line class="cls-5" x1="479.82" y1="23.03" x2="479.82" y2="573.23"/><line class="cls-2" x1="479.82" y1="23.03" x2="479.82" y2="573.23"/></g><g class="cls-1"><line class="cls-5" x1="454.23" y1="23.03" x2="454.23" y2="573.23"/><line class="cls-2" x1="454.23" y1="23.03" x2="454.23" y2="573.23"/></g><g class="cls-1"><line class="cls-5" x1="429.5" y1="23.03" x2="429.5" y2="573.23"/><line class="cls-2" x1="429.5" y1="23.03" x2="429.5" y2="573.23"/></g><g class="cls-1"><rect class="cls-2" x="337.8" y="234.58" width="15.36" height="111.75"/><path class="cls-3" d="M352.3,235.43v110H338.65v-110H352.3m1.7-1.7H336.94V347.18H354V233.73Z"/></g><g class="cls-1"><rect class="cls-2" x="446.98" y="235.43" width="15.36" height="111.75"/><path class="cls-3" d="M461.48,236.29v110H447.84v-110h13.64m1.71-1.71H446.13V348h17.06V234.58Z"/></g><g class="cls-1"><rect class="cls-2" x="26.85" y="246.85" width="755.29" height="10.29"/><path class="cls-3" d="M781.29,247.71v8.58H27.71v-8.58H781.29M783,246H26v12H783V246Z"/></g><g class="cls-1"><rect class="cls-2" x="26.85" y="315.85" width="755.29" height="10.29"/><path class="cls-3" d="M781.29,316.71v8.58H27.71v-8.58H781.29M783,315H26v12H783V315Z"/></g><g class="cls-1"><rect class="cls-2" x="0.85" y="0.85" width="807.81" height="592"/><path class="cls-3" d="M807.81,1.71V592H1.71V1.71h806.1M809.52,0H0V593.7H809.52V0Z"/></g></g></g></svg>