<svg xmlns="http://www.w3.org/2000/svg" viewBox="0 0 1129.43 847.46"><defs><style>.cls-1,.cls-4,.cls-5,.cls-8,.cls-9{opacity:0.31;}.cls-2,.cls-4,.cls-5,.cls-8,.cls-9{fill:#69a5e8;}.cls-2,.cls-5,.cls-8,.cls-9{fill-rule:evenodd;}.cls-3{fill:#0045af;}.cls-4,.cls-5,.cls-8,.cls-9{stroke:#0045af;}.cls-4,.cls-5,.cls-6,.cls-7,.cls-8,.cls-9{stroke-linecap:round;stroke-linejoin:round;}.cls-4,.cls-8{stroke-width:1.68px;}.cls-5{stroke-width:1.69px;}.cls-6,.cls-7{fill:none;stroke:#fff;}.cls-6{stroke-width:4px;}.cls-7{stroke-width:3.76px;}.cls-9{stroke-width:1.85px;}</style></defs><g id="Layer_2" data-name="Layer 2"><g id="Layer_6" data-name="Layer 6"><g class="cls-1"><polygon class="cls-2" points="3.88 772.21 242.96 719.63 240.59 789.73 5.83 846.29 3.88 772.21"/><path class="cls-3" d="M242,720.79,239.68,789,6.73,845.12,4.83,773,242,720.79m1.94-2.33-241,53,2,76,236.56-57,2.44-72Z"/></g><g class="cls-1"><polygon class="cls-2" points="2.88 739.22 196.84 699.43 238.91 717.2 3.83 770.31 2.88 739.22"/><path class="cls-3" d="M196.74,700.4l39.14,16.53L4.72,769.15,3.83,740,196.74,700.4m.19-1.94-195,40,1,33,239-54-45-19Z"/></g><g class="cls-1"><polygon class="cls-2" points="196.78 756.05 197.75 699.72 241.09 718.02 240.66 788.79 196.78 756.05"/><path class="cls-3" d="M198.57,701l41.67,17.6-.41,68.54-42.2-31.49.94-54.65m-1.64-2.52-1,58,45.56,34,.44-73-45-19Z"/></g><line class="cls-4" x1="195.93" y1="756.46" x2="1.49" y2="800.98"/><g class="cls-1"><polygon class="cls-2" points="967.76 3.31 1125.07 3.31 1109.11 611.09 954.79 647.39 967.76 3.31"/><path class="cls-3" d="M1124.2,4.15l-15.92,606.27-152.62,35.9L968.58,4.15H1124.2m1.73-1.69h-159l-13,646,156-36.7,16-609.3Z"/></g><polyline class="cls-5" points="953.93 648.46 966.93 2.46 896.93 2.46 886.93 606.46 953.93 648.46"/><line class="cls-6" x1="1112.43" y1="562.52" x2="956.43" y2="599.22"/><line class="cls-6" x1="1112.43" y1="513.52" x2="956.43" y2="550.22"/><line class="cls-6" x1="958.43" y1="504.22" x2="1114.43" y2="467.52"/><line class="cls-6" x1="961.43" y1="457.22" x2="1117.43" y2="420.52"/><line class="cls-6" x1="961.43" y1="408.22" x2="1117.43" y2="371.52"/><line class="cls-6" x1="961.43" y1="359.22" x2="1117.43" y2="322.52"/><line class="cls-6" x1="963.43" y1="313.22" x2="1119.43" y2="276.52"/><line class="cls-6" x1="966.43" y1="266.22" x2="1122.43" y2="229.52"/><line class="cls-6" x1="966.43" y1="215.22" x2="1122.43" y2="178.52"/><line class="cls-6" x1="966.43" y1="166.22" x2="1122.43" y2="129.52"/><line class="cls-6" x1="968.43" y1="120.22" x2="1124.43" y2="83.52"/><line class="cls-6" x1="971.43" y1="73.22" x2="1127.43" y2="36.52"/><line class="cls-6" x1="969.43" y1="23.22" x2="1059.63" y2="2"/><line class="cls-6" x1="888.93" y1="566.46" x2="956.18" y2="600.33"/><line class="cls-6" x1="889.93" y1="524.46" x2="955.19" y2="551.33"/><line class="cls-6" x1="890.93" y1="478.46" x2="958.25" y2="503.87"/><line class="cls-6" x1="889.93" y1="431.46" x2="959.25" y2="457.87"/><line class="cls-6" x1="890.93" y1="297.46" x2="961.89" y2="314.64"/><line class="cls-6" x1="893.93" y1="251.46" x2="963.89" y2="267.64"/><line class="cls-6" x1="893.93" y1="197.46" x2="964.89" y2="215.64"/><line class="cls-6" x1="894.93" y1="149.46" x2="963.89" y2="165.64"/><line class="cls-6" x1="895.93" y1="55.46" x2="967.89" y2="72.64"/><line class="cls-6" x1="895.93" y1="104.46" x2="964.89" y2="119.64"/><line class="cls-6" x1="895.93" y1="10.46" x2="966.89" y2="23.64"/><line class="cls-6" x1="890.93" y1="343.46" x2="960.89" y2="359.64"/><line class="cls-6" x1="889.93" y1="386.46" x2="957.77" y2="409.46"/><line class="cls-7" x1="1050.71" y1="5.74" x2="1050.71" y2="53.46"/><line class="cls-7" x1="979.71" y1="22.74" x2="979.71" y2="70.46"/><line class="cls-7" x1="927.71" y1="16.74" x2="927.71" y2="62.46"/><line class="cls-7" x1="923.71" y1="112.74" x2="923.71" y2="155.46"/><line class="cls-7" x1="920.71" y1="207.74" x2="920.71" y2="255.46"/><line class="cls-7" x1="920.71" y1="306.74" x2="920.71" y2="350.46"/><line class="cls-7" x1="915.71" y1="396.74" x2="915.71" y2="441.46"/><line class="cls-7" x1="915.71" y1="487.74" x2="915.71" y2="532.46"/><line class="cls-7" x1="914.71" y1="580.74" x2="914.71" y2="628.46"/><line class="cls-7" x1="1021.71" y1="60.74" x2="1021.71" y2="107.46"/><line class="cls-7" x1="1100.71" y1="43.74" x2="1100.71" y2="89.46"/><line class="cls-7" x1="1051.71" y1="100.74" x2="1051.71" y2="145.46"/><line class="cls-7" x1="1101.71" y1="136.74" x2="1101.71" y2="183.46"/><line class="cls-7" x1="1020.71" y1="154.74" x2="1020.71" y2="202.46"/><line class="cls-7" x1="1099.71" y1="238.74" x2="1099.71" y2="282.46"/><line class="cls-7" x1="1018.71" y1="254.74" x2="1018.71" y2="299.46"/><line class="cls-7" x1="1017.71" y1="345.74" x2="1017.71" y2="393.46"/><line class="cls-7" x1="1096.71" y1="329.74" x2="1096.71" y2="375.46"/><line class="cls-7" x1="1095.71" y1="427.74" x2="1095.71" y2="472.46"/><line class="cls-7" x1="1016.71" y1="444.74" x2="1016.71" y2="490.46"/><line class="cls-7" x1="1013.71" y1="537.74" x2="1013.71" y2="585.46"/><line class="cls-7" x1="1094.71" y1="520.74" x2="1094.71" y2="566.46"/><line class="cls-7" x1="1052.71" y1="196.74" x2="1052.71" y2="244.46"/><line class="cls-7" x1="1050.71" y1="293.74" x2="1050.71" y2="338.46"/><line class="cls-7" x1="1048.71" y1="389.74" x2="1048.71" y2="437.46"/><line class="cls-7" x1="1051.71" y1="484.74" x2="1051.71" y2="528.46"/><line class="cls-7" x1="1052.71" y1="578.74" x2="1052.71" y2="626.46"/><line class="cls-7" x1="979.71" y1="119.74" x2="979.71" y2="163.46"/><line class="cls-7" x1="977.71" y1="215.74" x2="977.71" y2="263.46"/><line class="cls-7" x1="976.71" y1="407.74" x2="976.71" y2="453.46"/><line class="cls-7" x1="975.71" y1="312.74" x2="975.71" y2="356.46"/><line class="cls-7" x1="973.71" y1="503.74" x2="973.71" y2="546.46"/><line class="cls-7" x1="972.71" y1="597.74" x2="972.71" y2="645.46"/><polygon class="cls-8" points="0.92 170.2 191.93 141.46 186.93 670.46 4.31 710.62 0.92 170.2"/><polygon class="cls-8" points="0.92 185.45 174.93 160.46 169.93 647.46 0.92 681.82 0.92 185.45"/><polygon class="cls-9" points="0.92 203.2 156.93 178.46 154.93 392.87 0.92 417.46 0.92 203.2"/><polygon class="cls-8" points="2.93 460.46 154.93 437.46 154.93 634.46 2.93 662.46 2.93 460.46"/><polygon class="cls-9" points="164.61 468.55 140.57 473.38 141.26 372.38 165.29 368.55 164.61 468.55"/></g></g></svg>