<svg xmlns="http://www.w3.org/2000/svg" viewBox="0 0 731.04 75.07"><defs><style>.cls-1{opacity:0.31;}.cls-2,.cls-4{fill:#69a5e8;}.cls-3{fill:#0045af;}.cls-4{fill-rule:evenodd;}</style></defs><g id="Layer_2" data-name="Layer 2"><g id="Layer_15" data-name="Layer 15"><g class="cls-1"><rect class="cls-2" x="0.85" y="17.06" width="134.78" height="56.3"/><path class="cls-3" d="M134.78,17.91v54.6H1.71V17.91H134.78m1.7-1.7H0v58H136.48v-58Z"/></g><g class="cls-1"><polygon class="cls-4" points="2.26 16.2 18.54 1.71 151.28 1.71 135 16.2 2.26 16.2"/><path class="cls-3" d="M149,2.57,134.67,15.34H4.52L18.87,2.57H149M153.54.85h0Zm0,0H18.22L0,17.06H135.33L153.54.85Z"/></g><g class="cls-1"><polygon class="cls-4" points="136.19 17.44 152.69 2.75 152.69 55.96 137.29 72.13 136.19 17.44"/><path class="cls-3" d="M151.84,4.65v51L138.11,70l-1.06-52.23L151.84,4.65m1.7-3.8L135.33,17.06l1.15,57.15L153.54,56.3V.85Z"/></g><g class="cls-1"><rect class="cls-2" x="154.4" y="17.91" width="134.78" height="56.3"/><path class="cls-3" d="M288.32,18.77V73.36H155.25V18.77H288.32M290,17.06H153.54v58H290v-58Z"/></g><g class="cls-1"><polygon class="cls-4" points="155.81 17.05 172.09 2.57 304.83 2.57 288.54 17.05 155.81 17.05"/><path class="cls-3" d="M302.57,3.43,288.22,16.19H158.07L172.42,3.43H302.57m4.52-1.72Zm0,0H171.76l-18.22,16.2H288.87l18.22-16.2Z"/></g><g class="cls-1"><polygon class="cls-4" points="289.73 18.29 306.24 3.61 306.24 56.81 290.84 72.98 289.73 18.29"/><path class="cls-3" d="M305.38,5.51v51L291.65,70.89l-1.06-52.22L305.38,5.51m1.71-3.8-18.22,16.2L290,75.07l17.06-17.92V1.71Z"/></g><g class="cls-1"><rect class="cls-2" x="424.81" y="16.21" width="134.78" height="56.3"/><path class="cls-3" d="M558.73,17.06V71.65H425.66V17.06H558.73m1.71-1.71H424v58H560.44v-58Z"/></g><g class="cls-1"><polygon class="cls-4" points="426.21 15.35 442.5 0.86 575.24 0.86 558.95 15.35 426.21 15.35"/><path class="cls-3" d="M573,1.72,558.62,14.49H428.47L442.82,1.72H573M577.5,0Zm0,0H442.17L424,16.21H559.28L577.5,0Z"/></g><g class="cls-1"><polygon class="cls-4" points="560.14 16.58 576.64 1.9 576.64 55.1 561.25 71.27 560.14 16.58"/><path class="cls-3" d="M575.79,3.8v51L562.06,69.18,561,17,575.79,3.8M577.5,0,559.28,16.21l1.16,57.15L577.5,55.45V0Z"/></g><g class="cls-1"><rect class="cls-2" x="578.35" y="17.06" width="134.78" height="56.3"/><path class="cls-3" d="M712.27,17.91v54.6H579.2V17.91H712.27m1.71-1.7H577.5v58H714v-58Z"/></g><g class="cls-1"><polygon class="cls-4" points="579.76 16.2 596.04 1.71 728.78 1.71 712.5 16.2 579.76 16.2"/><path class="cls-3" d="M726.52,2.57,712.17,15.34H582L596.37,2.57H726.52M731,.85Zm0,0H595.71L577.5,17.06H712.82L731,.85Z"/></g><g class="cls-1"><polygon class="cls-4" points="713.68 17.44 730.19 2.75 730.19 55.96 714.79 72.13 713.68 17.44"/><path class="cls-3" d="M729.33,4.65v51L715.6,70l-1.06-52.23L729.33,4.65M731,.85,712.82,17.06,714,74.21,731,56.3V.85Z"/></g></g></g></svg>