<svg xmlns="http://www.w3.org/2000/svg" viewBox="0 0 1604.78 765.2"><defs><style>.cls-1,.cls-2,.cls-3,.cls-4,.cls-5,.cls-6,.cls-7{fill:#69a5e8;stroke:#0045af;stroke-linecap:round;stroke-linejoin:round;opacity:0.31;}.cls-1{stroke-width:1.07px;}.cls-2{stroke-width:1.5px;}.cls-2,.cls-5,.cls-7{fill-rule:evenodd;}.cls-3{stroke-width:1.37px;}.cls-4,.cls-5{stroke-width:1.58px;}.cls-6{stroke-width:1.91px;}.cls-7{stroke-width:1.99px;}</style></defs><g id="Layer_2" data-name="Layer 2"><g id="Layer_11" data-name="Layer 11"><rect class="cls-1" x="7.75" y="16.95" width="1596.5" height="747.5"/><path class="cls-2" d="M1600.25,266.19C1422.18,141.86,1145.19,62,834.06,62,483.2,62,175.73,163.55,4.62,315.9L.75,764.45h1599.5Z"/><rect class="cls-3" x="1324.75" y="151.95" width="12" height="438"/><ellipse class="cls-4" cx="1331.75" cy="586.95" rx="56" ry="30"/><polygon class="cls-5" points="1295.25 137.45 1310.25 167.45 1354.25 167.45 1364.25 137.45 1295.25 137.45"/><polygon class="cls-5" points="1295.25 137.45 1295.25 38.95 1331.75 60.95 1364.75 38.95 1364.75 137.45 1295.25 137.45"/><polygon class="cls-5" points="1331.75 60.95 1280.75 28.95 1332.75 1.95 1375.75 29.95 1331.75 60.95"/><polygon class="cls-5" points="1331.75 60.95 1327.81 13.53 1280.75 28.95 1331.75 60.95"/><polygon class="cls-5" points="1375.75 29.95 1327.81 13.53 1331.75 60.95 1375.75 29.95"/><polygon class="cls-5" points="1327.81 13.53 1332.75 1.95 1375.75 29.95 1327.81 13.53"/><polygon class="cls-5" points="1327.81 13.53 1280.75 28.95 1332.75 1.95 1327.81 13.53"/><ellipse class="cls-6" cx="1327.75" cy="8.45" rx="7" ry="7.5"/><polygon class="cls-5" points="1295.25 38.95 1295.25 137.45 1310.25 167.45 1313.97 167.45 1298.72 137.19 1298.16 40.35 1295.25 38.95"/><polygon class="cls-5" points="1354.25 167.45 1350.11 167.45 1360.56 137.76 1361.41 40.35 1364.75 38.95 1364.75 137.45 1354.25 167.45"/><polygon class="cls-5" points="1325.55 57.85 1331.75 60.95 1331.75 167.12 1326.11 167.12 1325.55 57.85"/><polygon class="cls-5" points="1331.75 60.95 1336.56 57.29 1336.56 166.84 1331.75 167.12 1331.75 60.95"/><path class="cls-7" d="M1339.1,99.3a11.33,11.33,0,1,0-16,.06L1326,114h10.08Z"/><ellipse class="cls-4" cx="1331.25" cy="115.45" rx="8.5" ry="1.5"/><ellipse class="cls-4" cx="1331.25" cy="119.45" rx="8.5" ry="1.5"/><ellipse class="cls-4" cx="1331.25" cy="123.45" rx="8.5" ry="1.5"/><ellipse class="cls-4" cx="1331.25" cy="127.45" rx="8.5" ry="1.5"/><ellipse class="cls-4" cx="1331.25" cy="131.45" rx="8.5" ry="1.5"/></g></g></svg>