<svg xmlns="http://www.w3.org/2000/svg" viewBox="0 0 1424.69 619.94"><defs><style>.cls-1,.cls-4,.cls-5{opacity:0.31;}.cls-2,.cls-4,.cls-5{fill:#69a5e8;fill-rule:evenodd;}.cls-3{fill:#0045af;}.cls-4,.cls-5{stroke:#0045af;stroke-linecap:round;stroke-linejoin:round;}.cls-4{stroke-width:1.44px;}.cls-5{stroke-width:1.37px;}</style></defs><g id="Layer_2" data-name="Layer 2"><g id="Layer_2-2" data-name="Layer 2"><g class="cls-1"><polygon class="cls-2" points="601.7 80.32 709.65 57.6 765.81 100.06 658.17 123.16 601.7 80.32"/><path class="cls-3" d="M709.48,58.38l54.64,41.31-105.78,22.7-55-41.69L709.48,58.38m.35-1.55L600,79.94l58,44,109.5-23.5L709.83,56.83Z"/></g><g class="cls-1"><polygon class="cls-2" points="285.57 260.33 389.66 237.6 445.76 280.03 333.21 301.17 285.57 260.33"/><path class="cls-3" d="M389.49,238.38,444,279.62,333.41,300.39l-46.27-39.66,102.35-22.35m.34-1.55L284,259.94l49,42,114.5-21.5-57.67-43.61Z"/></g><g class="cls-1"><polygon class="cls-2" points="391.7 237.32 499.65 214.6 555.81 257.06 448.17 280.16 391.7 237.32"/><path class="cls-3" d="M499.48,215.38l54.64,41.31-105.78,22.7L393.39,237.7l106.09-22.32m.35-1.55L390,236.94l58,44,109.5-23.5-57.67-43.61Z"/></g><g class="cls-1"><polygon class="cls-2" points="501.7 214.32 609.65 191.6 665.81 234.06 558.17 257.16 501.7 214.32"/><path class="cls-3" d="M609.48,192.38l54.64,41.31-105.78,22.7-55-41.69,106.09-22.32m.35-1.55L500,213.94l58,44,109.5-23.5-57.67-43.61Z"/></g><g class="cls-1"><polygon class="cls-2" points="611.7 190.32 719.65 167.6 775.81 210.06 668.17 233.16 611.7 190.32"/><path class="cls-3" d="M719.48,168.38l54.64,41.31-105.78,22.7-55-41.69,106.09-22.32m.35-1.55L610,189.94l58,44,109.5-23.5-57.67-43.61Z"/></g><polyline class="cls-4" points="858.5 193.44 777 209.94 719 165.94 799.5 150.44"/><g class="cls-1"><polygon class="cls-2" points="224.76 215.34 333.65 194.6 389.8 237.06 284.17 259.17 224.76 215.34"/><path class="cls-3" d="M333.47,195.37l54.63,41.31L284.34,258.39l-57.82-42.65,107-20.37m.36-1.54L223,214.94l61,45,107.5-22.5-57.67-43.61Z"/></g><g class="cls-1"><polygon class="cls-2" points="106.81 237.33 222.65 215.6 278.76 258.03 166.17 279.17 106.81 237.33"/><path class="cls-3" d="M222.47,216.37,277,257.62l-110.7,20.79-57.71-40.68,113.85-21.36m.36-1.54L105,236.94l61,43,114.5-21.5-57.67-43.61Z"/></g><g class="cls-1"><polygon class="cls-2" points="335.7 194.32 443.65 171.6 499.81 214.06 392.17 237.16 335.7 194.32"/><path class="cls-3" d="M443.48,172.38l54.64,41.31-105.78,22.7L337.39,194.7l106.09-22.32m.35-1.55L334,193.94l58,44,109.5-23.5-57.67-43.61Z"/></g><g class="cls-1"><polygon class="cls-2" points="445.7 171.32 553.65 148.6 609.81 191.06 502.17 214.16 445.7 171.32"/><path class="cls-3" d="M553.48,149.38l54.64,41.31-105.78,22.7L447.39,171.7l106.09-22.32m.35-1.55L444,170.94l58,44,109.5-23.5-57.67-43.61Z"/></g><g class="cls-1"><polygon class="cls-2" points="555.7 147.32 663.65 124.6 719.81 167.06 612.17 190.16 555.7 147.32"/><path class="cls-3" d="M663.48,125.38l54.64,41.31-105.78,22.7-55-41.69,106.09-22.32m.35-1.55L554,146.94l58,44,109.5-23.5-57.67-43.61Z"/></g><polyline class="cls-4" points="799.94 150 721 166.94 663 122.94 736.2 107.54"/><g class="cls-1"><polygon class="cls-2" points="168.57 174.34 272.66 151.6 328.76 194.03 216.21 215.17 168.57 174.34"/><path class="cls-3" d="M272.49,152.38,327,193.62,216.41,214.39l-46.27-39.66,102.35-22.35m.34-1.55L167,173.94l49,42,114.5-21.5-57.67-43.61Z"/></g><g class="cls-1"><polygon class="cls-2" points="57.57 195.34 161.66 172.6 217.76 215.03 105.21 236.17 57.57 195.34"/><path class="cls-3" d="M161.49,173.38,216,214.62,105.41,235.39,59.14,195.73l102.35-22.35m.34-1.55L56,194.94l49,42,114.5-21.5-57.67-43.61Z"/></g><g class="cls-1"><polygon class="cls-2" points="274.7 151.32 382.65 128.6 438.81 171.06 331.17 194.16 274.7 151.32"/><path class="cls-3" d="M382.48,129.38l54.64,41.31-105.78,22.7L276.39,151.7l106.09-22.32m.35-1.55L273,150.94l58,44,109.5-23.5-57.67-43.61Z"/></g><g class="cls-1"><polygon class="cls-2" points="384.7 128.32 492.65 105.6 548.81 148.06 441.17 171.16 384.7 128.32"/><path class="cls-3" d="M492.48,106.38l54.64,41.31-105.78,22.7L386.39,128.7l106.09-22.32m.35-1.55L383,127.94l58,44,109.5-23.5-57.67-43.61Z"/></g><g class="cls-1"><polygon class="cls-2" points="494.7 104.32 602.65 81.6 658.81 124.06 551.17 147.16 494.7 104.32"/><path class="cls-3" d="M602.48,82.38l54.64,41.31-105.78,22.7-55-41.69L602.48,82.38m.35-1.55L493,103.94l58,44,109.5-23.5L602.83,80.83Z"/></g><g class="cls-1"><polygon class="cls-2" points="109.7 130.31 213.66 107.61 269.82 150.08 167.17 173.16 109.7 130.31"/><path class="cls-3" d="M213.49,108.38l54.66,41.33L167.33,172.39,111.4,130.67l102.09-22.29m.34-1.55L108,129.94l59,44,104.5-23.5-57.67-43.61Z"/></g><g class="cls-1"><polygon class="cls-2" points="1.7 151.31 105.66 128.6 161.82 171.08 59.17 194.16 1.7 151.31"/><path class="cls-3" d="M105.49,129.38l54.66,41.33L59.33,193.39,3.4,151.67l102.09-22.29m.34-1.55L0,150.94l59,44,104.5-23.5-57.67-43.61Z"/></g><g class="cls-1"><polygon class="cls-2" points="215.7 107.32 323.65 84.6 379.81 127.06 272.17 150.16 215.7 107.32"/><path class="cls-3" d="M323.48,85.38l54.64,41.31-105.78,22.7L217.39,107.7,323.48,85.38m.35-1.55L214,106.94l58,44,109.5-23.5L323.83,83.83Z"/></g><g class="cls-1"><polygon class="cls-2" points="325.7 84.32 433.65 61.6 489.81 104.06 382.17 127.16 325.7 84.32"/><path class="cls-3" d="M433.48,62.38l54.64,41.31-105.78,22.7L327.39,84.7,433.48,62.38m.35-1.55L324,83.94l58,44,109.5-23.5L433.83,60.83Z"/></g><g class="cls-1"><polygon class="cls-2" points="435.7 60.32 543.65 37.6 599.81 80.06 492.17 103.16 435.7 60.32"/><path class="cls-3" d="M543.48,38.38l54.64,41.31-105.78,22.7L437.39,60.7,543.48,38.38m.35-1.55L434,59.94l58,44,109.5-23.5L543.83,36.83Z"/></g><g class="cls-1"><polygon class="cls-2" points="544.7 37.32 652.65 14.6 708.81 57.06 601.17 80.16 544.7 37.32"/><path class="cls-3" d="M652.48,15.38l54.64,41.31L601.34,79.39l-55-41.69L652.48,15.38m.35-1.55L543,36.94l58,44,109.5-23.5L652.83,13.83Z"/></g><polyline class="cls-4" points="745.49 48.9 708 56.94 650 12.94 708.06 0.72"/><polyline class="cls-4" points="807.96 91.94 766 100.94 708 56.94 745.52 49.05"/><g class="cls-1"><polygon class="cls-2" points="336.57 302.33 440.66 279.61 496.76 322.03 384.21 343.17 336.57 302.33"/><path class="cls-3" d="M440.49,280.38,495,321.62,384.41,342.39l-46.27-39.66,102.35-22.35m.34-1.55L335,301.94l49,42,114.5-21.5-57.67-43.61Z"/></g><g class="cls-1"><polygon class="cls-2" points="442.7 279.32 550.65 256.6 606.81 299.06 499.17 322.16 442.7 279.32"/><path class="cls-3" d="M550.48,257.38l54.64,41.31-105.78,22.7L444.39,279.7l106.09-22.32m.35-1.55L441,278.94l58,44,109.5-23.5-57.67-43.61Z"/></g><g class="cls-1"><polygon class="cls-2" points="552.7 256.32 660.65 233.6 716.81 276.06 609.17 299.16 552.7 256.32"/><path class="cls-3" d="M660.48,234.38l54.64,41.31-105.78,22.7-55-41.69,106.09-22.32m.35-1.55L551,255.94l58,44,109.5-23.5-57.67-43.61Z"/></g><g class="cls-1"><polygon class="cls-2" points="662.7 232.32 770.65 209.6 826.81 252.06 719.17 275.16 662.7 232.32"/><path class="cls-3" d="M770.48,210.38l54.64,41.31-105.78,22.7-55-41.69,106.09-22.32m.35-1.55L661,231.94l58,44,109.5-23.5-57.67-43.61Z"/></g><polyline class="cls-4" points="913.5 230.44 825.5 250.44 771.5 209.44 858.5 193.44"/><g class="cls-1"><polygon class="cls-2" points="387.57 344.33 491.66 321.61 547.76 364.03 435.21 385.17 387.57 344.33"/><path class="cls-3" d="M491.49,322.38,546,363.62,435.41,384.39l-46.27-39.66,102.35-22.35m.34-1.55L386,343.94l49,42,114.5-21.5-57.67-43.61Z"/></g><g class="cls-1"><polygon class="cls-2" points="493.7 321.32 601.65 298.6 657.81 341.06 550.17 364.16 493.7 321.32"/><path class="cls-3" d="M601.48,299.38l54.64,41.31-105.78,22.7-55-41.69,106.09-22.32m.35-1.55L492,320.94l58,44,109.5-23.5-57.67-43.61Z"/></g><g class="cls-1"><polygon class="cls-2" points="603.7 298.32 711.65 275.6 767.81 318.06 660.17 341.16 603.7 298.32"/><path class="cls-3" d="M711.48,276.38l54.64,41.31-105.78,22.7-55-41.69,106.09-22.32m.35-1.55L602,297.94l58,44,109.5-23.5-57.67-43.61Z"/></g><g class="cls-1"><polygon class="cls-2" points="713.7 274.32 821.65 251.6 877.81 294.06 770.17 317.16 713.7 274.32"/><path class="cls-3" d="M821.48,252.38l54.64,41.31-105.78,22.7-55-41.69,106.09-22.32m.35-1.55L712,273.94l58,44,109.5-23.5-57.67-43.61Z"/></g><polyline class="cls-4" points="973.5 271.44 879 293.94 822.5 251.44 913.5 230.44"/><g class="cls-1"><polygon class="cls-2" points="440.57 386.33 544.66 363.61 600.76 406.03 488.21 427.17 440.57 386.33"/><path class="cls-3" d="M544.49,364.38,599,405.62,488.41,426.39l-46.27-39.66,102.35-22.35m.34-1.55L439,385.94l49,42,114.5-21.5-57.67-43.61Z"/></g><g class="cls-1"><polygon class="cls-2" points="546.7 363.32 654.65 340.6 710.81 383.06 603.17 406.16 546.7 363.32"/><path class="cls-3" d="M654.48,341.38l54.64,41.31-105.78,22.7-55-41.69,106.09-22.32m.35-1.55L545,362.94l58,44,109.5-23.5-57.67-43.61Z"/></g><g class="cls-1"><polygon class="cls-2" points="656.7 340.32 764.65 317.6 820.81 360.06 713.17 383.16 656.7 340.32"/><path class="cls-3" d="M764.48,318.38l54.64,41.31-105.78,22.7-55-41.69,106.09-22.32m.35-1.55L655,339.94l58,44,109.5-23.5-57.67-43.61Z"/></g><g class="cls-1"><polygon class="cls-2" points="766.7 316.32 874.65 293.6 930.81 336.06 823.17 359.16 766.7 316.32"/><path class="cls-3" d="M874.48,294.38l54.64,41.31-105.78,22.7-55-41.69,106.09-22.32m.35-1.55L765,315.94l58,44,109.5-23.5-57.67-43.61Z"/></g><polyline class="cls-4" points="1034.5 313.44 932 335.94 880.5 295.44 973.5 271.44"/><g class="cls-1"><polygon class="cls-2" points="490.57 427.33 594.66 404.61 650.76 447.03 538.21 468.17 490.57 427.33"/><path class="cls-3" d="M594.49,405.38,649,446.62,538.41,467.39l-46.27-39.66,102.35-22.35m.34-1.55L489,426.94l49,42,114.5-21.5-57.67-43.61Z"/></g><g class="cls-1"><polygon class="cls-2" points="596.7 404.32 704.65 381.6 760.81 424.06 653.17 447.16 596.7 404.32"/><path class="cls-3" d="M704.48,382.38l54.64,41.31-105.78,22.7-55-41.69,106.09-22.32m.35-1.55L595,403.94l58,44,109.5-23.5-57.67-43.61Z"/></g><g class="cls-1"><polygon class="cls-2" points="706.7 381.32 814.65 358.6 870.81 401.06 763.17 424.16 706.7 381.32"/><path class="cls-3" d="M814.48,359.38l54.64,41.31-105.78,22.7-55-41.69,106.09-22.32m.35-1.55L705,380.94l58,44,109.5-23.5-57.67-43.61Z"/></g><g class="cls-1"><polygon class="cls-2" points="819.64 358.31 924.66 334.61 980.81 377.06 873.18 400.16 819.64 358.31"/><path class="cls-3" d="M924.49,335.38l54.63,41.31-105.76,22.7-52.07-40.71,103.2-23.3m.34-1.55L818,357.94l55,43,109.5-23.5-57.67-43.61Z"/></g><polyline class="cls-4" points="1093.5 352.44 982 376.94 928.5 335.44 1034.5 313.44"/><g class="cls-1"><polygon class="cls-2" points="542.57 469.33 646.66 446.61 702.76 489.03 590.21 510.17 542.57 469.33"/><path class="cls-3" d="M646.49,447.38,701,488.62,590.41,509.39l-46.27-39.66,102.35-22.35m.34-1.55L541,468.94l49,42,114.5-21.5-57.67-43.61Z"/></g><g class="cls-1"><polygon class="cls-2" points="648.7 446.32 756.65 423.6 812.81 466.06 705.17 489.16 648.7 446.32"/><path class="cls-3" d="M756.48,424.38l54.64,41.31-105.78,22.7-55-41.69,106.09-22.32m.35-1.55L647,445.94l58,44,109.5-23.5-57.67-43.61Z"/></g><g class="cls-1"><polygon class="cls-2" points="758.7 423.32 866.65 400.6 922.81 443.06 815.17 466.16 758.7 423.32"/><path class="cls-3" d="M866.48,401.38l54.64,41.31-105.78,22.7-55-41.69,106.09-22.32m.35-1.55L757,422.94l58,44,109.5-23.5-57.67-43.61Z"/></g><g class="cls-1"><polygon class="cls-2" points="868.7 399.32 976.65 376.6 1032.81 419.06 925.17 442.16 868.7 399.32"/><path class="cls-3" d="M976.48,377.38l54.64,41.31-105.78,22.7-55-41.69,106.09-22.32m.35-1.55L867,398.94l58,44,109.5-23.5-57.67-43.61Z"/></g><polyline class="cls-4" points="1149.5 389.44 1027.5 417.44 980.5 378.44 1093.5 352.44"/><g class="cls-1"><polygon class="cls-2" points="592.57 510.33 696.66 487.61 752.76 530.03 640.21 551.17 592.57 510.33"/><path class="cls-3" d="M696.49,488.38,751,529.62,640.41,550.39l-46.27-39.66,102.35-22.35m.34-1.55L591,509.94l49,42,114.5-21.5-57.67-43.61Z"/></g><g class="cls-1"><polygon class="cls-2" points="698.7 487.32 806.65 464.6 862.81 507.06 755.17 530.16 698.7 487.32"/><path class="cls-3" d="M806.48,465.38l54.64,41.31-105.78,22.7-55-41.69,106.09-22.32m.35-1.55L697,486.94l58,44,109.5-23.5-57.67-43.61Z"/></g><g class="cls-1"><polygon class="cls-2" points="808.7 464.32 916.65 441.6 972.81 484.06 865.17 507.16 808.7 464.32"/><path class="cls-3" d="M916.48,442.38l54.64,41.31-105.78,22.7-55-41.69,106.09-22.32m.35-1.55L807,463.94l58,44,109.5-23.5-57.67-43.61Z"/></g><g class="cls-1"><polygon class="cls-2" points="918.7 440.32 1026.65 417.6 1082.81 460.06 975.17 483.16 918.7 440.32"/><path class="cls-3" d="M1026.48,418.38l54.64,41.31-105.78,22.7-55-41.69,106.09-22.32m.35-1.55L917,439.94l58,44,109.5-23.5-57.67-43.61Z"/></g><polyline class="cls-4" points="1213.5 433.44 1084 459.94 1030.5 418.44 1149.5 389.44"/><g class="cls-1"><polygon class="cls-2" points="601.27 619.22 194.66 273.41 281.26 259.62 726.96 619.22 601.27 619.22"/><path class="cls-3" d="M281.06,260.38,724.91,618.5H601.53L196.32,273.87l84.74-13.49m.4-1.53L193,272.94l408,347H729L281.46,258.85Z"/></g><g class="cls-1"><polygon class="cls-2" points="198.64 295.59 195.37 273.58 598.94 617.81 574.25 618.25 198.64 295.59"/><path class="cls-3" d="M196.32,275.29l400.8,341.86-22.62.41L199.28,295.23l-3-19.94m-1.9-3.42L198,295.94l376,323,26.76-.48L194.42,271.87Z"/></g><g class="cls-1"><polygon class="cls-2" points="734.81 75.32 813.85 59.7 1420.29 453.34 1423.24 551.53 734.81 75.32"/><path class="cls-3" d="M813.71,60.47l605.87,393.27,2.89,96.39L736.63,75.69l77.08-15.22m.29-1.53-81,16,691,478-3-100-607-394Z"/></g><polyline class="cls-5" points="733 74.94 1424 552.94 1424 585.94 733 102.94 733 74.94"/></g></g></svg>