<svg xmlns="http://www.w3.org/2000/svg" viewBox="0 0 642.16 834.37"><defs><style>.cls-1,.cls-2{fill:none;stroke:#0045af;stroke-linecap:round;stroke-linejoin:round;stroke-width:10.16px;opacity:0.31;}.cls-1{fill-rule:evenodd;}</style></defs><g id="Layer_2" data-name="Layer 2"><g id="Layer_3" data-name="Layer 3"><path class="cls-1" d="M8.86,776.29,9.7,314.74a302.87,302.87,0,0,1,.08-33.68C19,119.92,153.05-3.43,309.08,5.54,437.19,12.91,540.32,107.17,568,229.85L567.27,640"/><path class="cls-1" d="M154,152.18c55.55-61.86,136.35-98.69,224.12-93.64C506.19,65.91,609.32,160.17,637,282.85L636.27,693"/><path class="cls-1" d="M77.86,829.29l.84-461.55a302.87,302.87,0,0,1,.08-33.68c4-70.5,32-133.76,75.18-181.88"/><line class="cls-2" x1="7.09" y1="385.52" x2="83.1" y2="419.55"/><line class="cls-2" x1="8.09" y1="302.52" x2="79.08" y2="333.79"/><line class="cls-2" x1="20.09" y1="209.52" x2="98.1" y2="247.55"/><line class="cls-2" x1="60.09" y1="134.52" x2="138.1" y2="172.55"/><line class="cls-2" x1="112.09" y1="78.52" x2="190.1" y2="116.55"/><line class="cls-2" x1="182.09" y1="32.52" x2="260.1" y2="70.55"/><line class="cls-2" x1="266.09" y1="9.52" x2="354.08" y2="57.79"/><line class="cls-2" x1="343.31" y1="11.14" x2="435.08" y2="65.79"/><line class="cls-2" x1="567.08" y1="271.79" x2="635.08" y2="294.79"/><line class="cls-2" x1="565.09" y1="218.52" x2="624.08" y2="239.79"/><line class="cls-2" x1="553.09" y1="174.52" x2="600.08" y2="190.79"/><line class="cls-2" x1="521.15" y1="124.97" x2="564.08" y2="146.79"/><line class="cls-2" x1="568.08" y1="334.79" x2="637.08" y2="359.79"/><line class="cls-2" x1="568.08" y1="386.79" x2="636.08" y2="412.79"/><line class="cls-2" x1="566.08" y1="440.79" x2="636.08" y2="465.79"/><line class="cls-2" x1="566.08" y1="493.79" x2="636.08" y2="520.79"/><line class="cls-2" x1="567.21" y1="566.73" x2="637.08" y2="595.79"/><line class="cls-2" x1="567.21" y1="626.73" x2="637.08" y2="655.79"/><line class="cls-2" x1="10.08" y1="460.79" x2="82.77" y2="495.21"/><line class="cls-2" x1="9.08" y1="532.79" x2="81.93" y2="566.5"/><line class="cls-2" x1="6.56" y1="596.31" x2="82.57" y2="638.18"/><line class="cls-2" x1="5.08" y1="662.79" x2="81.57" y2="704.18"/><line class="cls-2" x1="9.47" y1="730.51" x2="79.08" y2="768.79"/><line class="cls-2" x1="432.08" y1="40.89" x2="518.08" y2="101.79"/></g></g></svg>