<svg xmlns="http://www.w3.org/2000/svg" viewBox="0 0 927.63 771.99"><defs><style>.cls-1,.cls-20,.cls-21{opacity:0.31;}.cls-2,.cls-20,.cls-21{fill:#69a5e8;fill-rule:evenodd;}.cls-3{fill:#0045af;}.cls-10,.cls-11,.cls-12,.cls-13,.cls-14,.cls-15,.cls-16,.cls-17,.cls-18,.cls-19,.cls-4,.cls-5,.cls-6,.cls-7,.cls-8,.cls-9{fill:none;stroke:#fff;}.cls-4{stroke-miterlimit:10;}.cls-4,.cls-5{stroke-width:4px;}.cls-10,.cls-11,.cls-12,.cls-13,.cls-14,.cls-15,.cls-16,.cls-17,.cls-18,.cls-19,.cls-20,.cls-21,.cls-5,.cls-6,.cls-7,.cls-8,.cls-9{stroke-linecap:round;stroke-linejoin:round;}.cls-6{stroke-width:3.8px;}.cls-7{stroke-width:4.02px;}.cls-8{stroke-width:3.86px;}.cls-9{stroke-width:2.74px;}.cls-10{stroke-width:3.57px;}.cls-11{stroke-width:3.76px;}.cls-12{stroke-width:3.16px;}.cls-13{stroke-width:3.47px;}.cls-14{stroke-width:3.72px;}.cls-15{stroke-width:3.76px;}.cls-16{stroke-width:3.52px;}.cls-17{stroke-width:3.81px;}.cls-18{stroke-width:3.52px;}.cls-19{stroke-width:3.75px;}.cls-20,.cls-21{stroke:#0045af;}.cls-20{stroke-width:1.68px;}.cls-21{stroke-width:1.6px;}</style></defs><g id="Layer_2" data-name="Layer 2"><g id="Layer_5" data-name="Layer 5"><g class="cls-1"><polygon class="cls-2" points="4.36 738.75 4.36 3.65 925.65 4.65 913.69 576.12 4.83 770.95 4.36 738.75"/><path class="cls-3" d="M5.2,4.49l919.59,1-11.93,570L5.65,769.92,5.2,738.76V4.49M3.51,2.8v736L4,772,914.51,576.8l12-573-923-1Z"/></g><g class="cls-1"><polygon class="cls-2" points="1.92 141.3 227.14 105.98 218.17 695.31 4.84 741.95 1.92 141.3"/><path class="cls-3" d="M226.29,107l-8.95,587.67L5.67,740.9,2.76,142,226.29,107m1.71-2L1.07,140.58,4,743l215-47,9-591Z"/></g><line class="cls-4" x1="222.05" y1="678.21" x2="916.63" y2="539.29"/><line class="cls-5" x1="222.05" y1="639.21" x2="916.63" y2="500.29"/><line class="cls-5" x1="224.05" y1="597.21" x2="918.63" y2="458.29"/><line class="cls-5" x1="808.89" y1="438.64" x2="920.63" y2="416.29"/><line class="cls-5" x1="226.05" y1="555.21" x2="257.65" y2="548.89"/><line class="cls-4" x1="809.08" y1="405.41" x2="919.63" y2="383.29"/><line class="cls-4" x1="225.05" y1="522.21" x2="257.78" y2="515.66"/><line class="cls-5" x1="809.78" y1="366.27" x2="919.63" y2="344.29"/><line class="cls-5" x1="225.05" y1="483.21" x2="256.58" y2="476.9"/><line class="cls-5" x1="810.03" y1="324.62" x2="921.63" y2="302.29"/><line class="cls-5" x1="227.05" y1="441.21" x2="257.49" y2="435.12"/><line class="cls-5" x1="811.37" y1="282.75" x2="923.63" y2="260.29"/><line class="cls-5" x1="229.05" y1="399.21" x2="257.74" y2="393.47"/><line class="cls-4" x1="812.62" y1="246.1" x2="921.63" y2="224.29"/><line class="cls-4" x1="227.05" y1="363.21" x2="259" y2="356.82"/><line class="cls-5" x1="814.03" y1="206.82" x2="921.63" y2="185.29"/><line class="cls-5" x1="227.05" y1="324.21" x2="257.79" y2="318.06"/><line class="cls-5" x1="814.5" y1="165.12" x2="923.63" y2="143.29"/><line class="cls-5" x1="229.05" y1="282.21" x2="259.13" y2="276.19"/><line class="cls-5" x1="815.35" y1="123.35" x2="925.63" y2="101.29"/><line class="cls-5" x1="231.05" y1="240.21" x2="258.74" y2="234.67"/><line class="cls-4" x1="815.95" y1="84.83" x2="923.63" y2="63.29"/><line class="cls-4" x1="229.05" y1="202.21" x2="258.95" y2="196.23"/><line class="cls-5" x1="815.78" y1="45.87" x2="923.63" y2="24.29"/><line class="cls-5" x1="229.05" y1="163.21" x2="259.27" y2="157.17"/><line class="cls-5" x1="545.31" y1="58.36" x2="824.66" y2="2.49"/><line class="cls-5" x1="231.05" y1="121.21" x2="264.93" y2="114.23"/><line class="cls-5" x1="2" y1="123.99" x2="613.52" y2="2.77"/><line class="cls-5" x1="3" y1="76.99" x2="396.83" y2="2.45"/><line class="cls-5" x1="8.38" y1="29.77" x2="148.29" y2="3.22"/><line class="cls-5" x1="89" y1="15.99" x2="90.09" y2="57.22"/><line class="cls-6" x1="175.09" y1="3.99" x2="175.09" y2="45.22"/><line class="cls-5" x1="265.09" y1="3.01" x2="265.09" y2="28.22"/><line class="cls-7" x1="43" y1="71.99" x2="43.09" y2="114.22"/><line class="cls-8" x1="143.09" y1="53.48" x2="143.09" y2="95.99"/><line class="cls-9" x1="194.09" y1="88.48" x2="194.09" y2="109.99"/><line class="cls-9" x1="89.09" y1="107.48" x2="89.09" y2="126.99"/><line class="cls-5" x1="226.09" y1="36.48" x2="226" y2="77.99"/><line class="cls-10" x1="279.09" y1="69.48" x2="279.09" y2="102.99"/><line class="cls-11" x1="243.09" y1="118.48" x2="243.09" y2="158.99"/><line class="cls-11" x1="245" y1="201.48" x2="245" y2="237.99"/><line class="cls-11" x1="841.09" y1="119.48" x2="841.09" y2="159.99"/><line class="cls-11" x1="871.09" y1="154.48" x2="871.09" y2="194.99"/><line class="cls-11" x1="842.09" y1="201.48" x2="842.09" y2="239.99"/><line class="cls-11" x1="841.09" y1="279.48" x2="841.09" y2="317.99"/><line class="cls-11" x1="905.09" y1="264.48" x2="905.09" y2="304.99"/><line class="cls-11" x1="902.09" y1="349.48" x2="902.09" y2="389.99"/><line class="cls-11" x1="842.09" y1="360.48" x2="842.09" y2="398.99"/><line class="cls-11" x1="903.09" y1="421.48" x2="903.09" y2="461.99"/><line class="cls-11" x1="900.09" y1="506.48" x2="900.09" y2="546.99"/><line class="cls-11" x1="844.09" y1="432.48" x2="844.09" y2="472.99"/><line class="cls-12" x1="700.09" y1="473.48" x2="700.09" y2="501.99"/><line class="cls-12" x1="777.09" y1="457.48" x2="777.09" y2="485.99"/><line class="cls-12" x1="551.09" y1="503.48" x2="551.09" y2="531.99"/><line class="cls-12" x1="626.09" y1="487.48" x2="626.09" y2="515.99"/><line class="cls-12" x1="487.09" y1="516.48" x2="487.09" y2="544.99"/><line class="cls-12" x1="414.09" y1="531.48" x2="414.09" y2="559.99"/><line class="cls-12" x1="342.09" y1="545.48" x2="342.09" y2="573.99"/><line class="cls-12" x1="278.09" y1="559.48" x2="278.09" y2="585.99"/><line class="cls-13" x1="874.09" y1="392.48" x2="874.09" y2="425.99"/><line class="cls-14" x1="875.09" y1="469.48" x2="875.09" y2="508.99"/><line class="cls-14" x1="816.09" y1="562.48" x2="816.09" y2="601.99"/><line class="cls-14" x1="747.09" y1="576.48" x2="747.09" y2="615.99"/><line class="cls-14" x1="602.09" y1="604.48" x2="602.09" y2="643.99"/><line class="cls-14" x1="673.09" y1="590.48" x2="673.09" y2="629.99"/><line class="cls-14" x1="452.09" y1="634.48" x2="452.09" y2="673.99"/><line class="cls-14" x1="380.09" y1="649.48" x2="380.09" y2="688.99"/><line class="cls-14" x1="525.09" y1="619.48" x2="525.09" y2="658.99"/><line class="cls-14" x1="312.09" y1="664.48" x2="312.09" y2="703.99"/><line class="cls-14" x1="804.09" y1="483.48" x2="804.09" y2="522.99"/><line class="cls-14" x1="736.09" y1="494.48" x2="736.09" y2="533.99"/><line class="cls-14" x1="661.09" y1="509.48" x2="661.09" y2="548.99"/><line class="cls-14" x1="521.09" y1="537.48" x2="521.09" y2="576.99"/><line class="cls-14" x1="378.09" y1="567.48" x2="378.09" y2="606.99"/><line class="cls-14" x1="311.09" y1="581.48" x2="311.09" y2="620.99"/><line class="cls-14" x1="283.09" y1="626.48" x2="283.09" y2="665.99"/><line class="cls-14" x1="352.09" y1="616.48" x2="352.09" y2="652.99"/><line class="cls-14" x1="418.09" y1="601.48" x2="418.09" y2="638.99"/><line class="cls-14" x1="486.09" y1="589.48" x2="486.09" y2="624.99"/><line class="cls-14" x1="562.09" y1="572.48" x2="562.09" y2="608.99"/><line class="cls-14" x1="630.09" y1="557.48" x2="630.09" y2="596.99"/><line class="cls-14" x1="708.09" y1="542.48" x2="708.09" y2="580.99"/><line class="cls-14" x1="776.09" y1="530.48" x2="776.09" y2="567.99"/><line class="cls-14" x1="453.09" y1="553.48" x2="453.09" y2="592.99"/><line class="cls-14" x1="589.09" y1="526.48" x2="589.09" y2="565.99"/><line class="cls-14" x1="877.09" y1="547.48" x2="877.09" y2="586.99"/><line class="cls-15" x1="876.09" y1="314.48" x2="876.09" y2="352.99"/><line class="cls-16" x1="875.09" y1="234.48" x2="875.09" y2="269.99"/><line class="cls-11" x1="905.09" y1="190.48" x2="905.09" y2="230.99"/><line class="cls-11" x1="248.09" y1="279.48" x2="248.09" y2="319.99"/><line class="cls-11" x1="247.09" y1="359.48" x2="247.09" y2="395.99"/><line class="cls-11" x1="245.09" y1="438.48" x2="245.09" y2="478.99"/><line class="cls-13" x1="243.09" y1="519.48" x2="243.09" y2="551.99"/><line class="cls-17" x1="245.09" y1="594.48" x2="245.09" y2="633.99"/><line class="cls-17" x1="245.09" y1="673.48" x2="245.09" y2="714.99"/><line class="cls-11" x1="905.09" y1="108.48" x2="905.09" y2="148.99"/><line class="cls-11" x1="865.09" y1="75.48" x2="865.09" y2="113.99"/><line class="cls-11" x1="831.09" y1="44.48" x2="831.09" y2="82.99"/><line class="cls-11" x1="901.09" y1="29.48" x2="901.09" y2="69.99"/><line class="cls-11" x1="864.09" y1="3.01" x2="864.09" y2="35.99"/><line class="cls-18" x1="365.09" y1="53.48" x2="365.09" y2="86.99"/><line class="cls-10" x1="452.09" y1="37.48" x2="452.09" y2="71.99"/><line class="cls-11" x1="545.09" y1="16.48" x2="545.09" y2="55.99"/><line class="cls-11" x1="622.09" y1="4.48" x2="622.09" y2="42.99"/><line class="cls-11" x1="688.09" y1="1.88" x2="688.09" y2="27.99"/><line class="cls-11" x1="750.09" y1="4.14" x2="750.09" y2="15.99"/><line class="cls-5" x1="328.09" y1="14.48" x2="328" y2="59.99"/><line class="cls-19" x1="418.09" y1="1.99" x2="418" y2="41.99"/><line class="cls-5" x1="518.09" y1="3.01" x2="518.09" y2="22.22"/><polyline class="cls-20" points="265.88 113.98 266 107.99 545.42 58.89"/><polyline class="cls-20" points="545.42 58.89 818 10.99 809 448.99 257 562.99 265.88 113.98"/><polyline class="cls-21" points="279.68 123.67 279.79 117.98 545.17 71.34"/><polyline class="cls-21" points="545.17 71.34 804.06 25.85 795.51 441.85 271.24 550.13 279.68 123.67"/></g></g></svg>